<?xml version="1.0" standalone="no"?>
<!DOCTYPE svg PUBLIC "-//W3C//DTD SVG 1.1//EN" "http://www.w3.org/Graphics/SVG/1.1/DTD/svg11.dtd" >
<svg xmlns="http://www.w3.org/2000/svg" xmlns:xlink="http://www.w3.org/1999/xlink" version="1.1">
<metadata>
Created by FontForge 20200314 at Tue Aug  9 23:04:30 2016
 By Unknown
</metadata>
<defs>
<font id="MVideo_icon_font" horiz-adv-x="1024" >
  <font-face 
    font-family="MVideo_icon_font"
    font-weight="400"
    font-stretch="normal"
    units-per-em="1024"
    panose-1="0 0 0 0 0 0 0 0 0 0"
    ascent="960"
    descent="-64"
    bbox="-19 -65.6667 2133.05 961.667"
    underline-thickness="0"
    underline-position="0"
    unicode-range="U+0001-FFFD"
  />
<missing-glyph 
 />
    <glyph glyph-name=".notdef" unicode="&#xfffd;" 
 />
    <glyph glyph-name="glyph1" horiz-adv-x="0" 
d="M0 0v0v0v0z" />
    <glyph glyph-name="glyph1" horiz-adv-x="0" 
d="M0 0v0v0v0z" />
    <glyph glyph-name="nonmarkingreturn" horiz-adv-x="341" 
 />
    <glyph glyph-name="uni0001" horiz-adv-x="0" 
d="M0 0v0v0v0z" />
    <glyph glyph-name="space" unicode=" " horiz-adv-x="512" 
d="M0 0v0v0v0z" />
    <glyph glyph-name="uniE000" unicode="&#xe000;" horiz-adv-x="920" 
d="M921 -22q-3 103 -40 192.5t-99.5 156t-145 104.5t-175.5 38q-94 0 -176.5 -38t-144.5 -104.5t-99.5 -156t-40.5 -192.5v-2v-2v-13q0 -10 7 -17.5t16 -7.5h876q9 0 16 7.5t7 17.5v13q0 1 -0.5 2t-0.5 2v0zM244 747q0 -45 17 -83.5t46.5 -67.5t69 -46t84.5 -17t84.5 17
t69 46t46.5 67.5t17 83.5q0 44 -17 83t-46.5 68t-69 45.5t-84.5 16.5t-84.5 -16.5t-69 -45.5t-46.5 -68t-17 -83z" />
    <glyph glyph-name="uniE001" unicode="&#xe001;" 
d="M512 858q-85 0 -159.5 -32.5t-130 -88t-88 -130t-32.5 -159.5t32.5 -159.5t88 -130t130 -88t159.5 -32.5t159.5 32.5t130 88t88 130t32.5 159.5t-32.5 159.5t-88 130t-130 88t-159.5 32.5zM512 960q-106 0 -199 -40.5t-162.5 -110t-110 -162.5t-40.5 -199t40.5 -199
t110 -162.5t162.5 -110t199 -40.5t199 40.5t162.5 110t110 162.5t40.5 199t-40.5 199t-110 162.5t-162.5 110t-199 40.5zM512 38q-85 0 -159.5 32.5t-130 88t-88 130t-32.5 159.5t32.5 159.5t88 130t130 88t159.5 32.5t159.5 -32.5t130 -88t88 -130t32.5 -159.5
t-32.5 -159.5t-88 -130t-130 -88t-159.5 -32.5zM556 579q0 14 -11 22.5t-32 8.5q-26 0 -44 -6t-32 -14q-4 -2 -8.5 -4.5t-9.5 1.5q-6 4 -12.5 15.5t-6.5 24.5q0 33 38.5 47t83.5 14q63 0 96.5 -28t33.5 -72q0 -72 -59.5 -109t-59.5 -75q0 -11 8 -17.5t22 -6.5q9 0 12 -4.5
t1 -15.5q-4 -16 -17.5 -25.5t-37.5 -9.5q-34 0 -50.5 23.5t-16.5 54.5q0 66 51 97t51 79v0zM520 282q25 0 40.5 -15t15.5 -39t-15.5 -39t-40.5 -15q-24 0 -39 15t-15 39t15 39t39 15z" />
    <glyph glyph-name="uniE002" unicode="&#xe002;" horiz-adv-x="584" 
d="M512 960h-439q-30 0 -51.5 -20.5t-21.5 -49.5v-884q0 -29 21.5 -49.5t51.5 -20.5h439q30 0 51.5 20.5t21.5 49.5v884q0 29 -21.5 49.5t-51.5 20.5v0zM317 -17h-49q-10 0 -17 6.5t-7 16.5q0 9 7 16t17 7h49q10 0 17 -7t7 -16q0 -10 -7 -16.5t-17 -6.5zM536 76h-487v744
h487v-744z" />
    <glyph glyph-name="uniE003" unicode="&#xe003;" horiz-adv-x="974" 
d="M938 339q6 -7 4.5 -15.5t-8.5 -14.5q-7 -5 -15.5 -4t-14.5 9q-5 7 -4 15.5t8 13.5q8 5 16.5 4t13.5 -8zM966 485q11 -15 9 -33.5t-17 -29.5t-33 -8t-30 17q-11 15 -8.5 33t17.5 29q15 12 33 9t29 -17zM937 665q16 -20 12.5 -44t-23.5 -39q-19 -15 -43.5 -11.5t-39.5 22.5
q-15 20 -11.5 44.5t23.5 39.5q19 14 43.5 11t38.5 -23zM803 838q21 -28 16.5 -63t-33.5 -56q-28 -21 -62.5 -16t-55.5 33q-22 28 -17 63t33 56t63 16t56 -33v0zM572 920q25 -33 19.5 -74t-38.5 -66t-74 -19t-66 39t-19.5 74t39.5 66q33 25 73.5 19t65.5 -39zM317 840
q32 -43 24.5 -95.5t-50.5 -84.5q-42 -32 -94.5 -24.5t-84.5 49.5q-32 43 -24.5 95.5t49.5 84.5t95 24.5t85 -49.5v0zM52 547q-7 8 -6 18t9 17q8 6 18.5 5t16.5 -9q6 -7 5 -17.5t-9 -17.5q-8 -6 -18 -5t-16 9zM10 391q-12 15 -10 33t16 30q15 12 33 10t30 -16t10 -32.5
t-16 -30.5t-32.5 -10t-30.5 16v0zM45 206q-16 19 -13.5 44.5t21.5 41.5q20 16 45 13.5t41 -21.5q16 -20 13.5 -45t-21.5 -42q-19 -16 -44.5 -13.5t-41.5 22.5v0zM191 46q-21 27 -18 60.5t29 54.5q26 22 60 18.5t55 -29.5t18 -59.5t-29 -55.5q-26 -21 -59.5 -18t-55.5 29v0z
M414 -29q-26 32 -22 71.5t35 65.5t71 22t66 -35q25 -31 21.5 -71t-34.5 -66q-31 -25 -71.5 -21.5t-65.5 34.5v0zM650 84q-33 41 -28 94t46 87t94 29t87 -47q33 -41 28 -94t-46 -87q-41 -33 -94 -28t-87 46v0z" />
    <glyph glyph-name="uniE004" unicode="&#xe004;" horiz-adv-x="1364" 
d="M683 636q-46 0 -86.5 -17.5t-70.5 -47.5t-47.5 -70.5t-17.5 -86.5t17.5 -86.5t47.5 -70.5t70.5 -47.5t86.5 -17.5t86 17.5t70.5 47.5t48 70.5t17.5 86.5t-17.5 86.5t-48 70.5t-70.5 47.5t-86 17.5zM1229 823h-205q0 57 -40 97t-97 40h-409q-57 0 -97 -40t-40 -97h-204
q-57 0 -97 -40t-40 -96v-614q0 -57 40 -97t97 -40h1092q56 0 96 40t40 97v614q0 56 -40 96t-96 40v0zM683 90q-67 0 -126 25.5t-103.5 69.5t-70 103t-25.5 126t25.5 126t70 103t103.5 69.5t126 25.5t126 -25.5t103 -69.5t69.5 -103t25.5 -126t-25.5 -126t-69.5 -103
t-103 -69.5t-126 -25.5v0zM216 657h-68q-14 0 -24 9.5t-10 23.5q0 13 10 22.5t24 9.5h68q14 0 24 -9.5t10 -22.5q0 -14 -10 -23.5t-24 -9.5z" />
    <glyph glyph-name="uniE005" unicode="&#xe005;" horiz-adv-x="1462" 
d="M1207 960h-951q-45 0 -77.5 -30.5t-32.5 -73.5v-700h1171v700q0 43 -32.5 73.5t-77.5 30.5zM1243 260h-1024v601h1024v-601zM862 82l-36 -36h-183l-37 36h-606v-36q0 -46 32 -78t78 -32h1243q46 0 78 32t32 78v36h-601z" />
    <glyph glyph-name="uniE006" unicode="&#xe006;" 
d="M517 262q32 0 52 -20t20 -51q0 -32 -20 -51.5t-52 -19.5t-51.5 19.5t-19.5 51.5q0 31 19.5 51t51.5 20zM509 337q-16 0 -23.5 4.5t-8.5 26.5l-26 355q-1 28 14 48.5t52 20.5t52 -20.5t14 -48.5l-25 -355q-2 -22 -9.5 -26.5t-22.5 -4.5h-17v0zM0 448q0 -106 40 -199.5
t109.5 -163t163 -109.5t199.5 -40t199.5 40t163 109.5t109.5 163t40 199.5t-40 199.5t-109.5 163t-163 109.5t-199.5 40t-199.5 -40t-163 -109.5t-109.5 -163t-40 -199.5z" />
    <glyph glyph-name="uniE007" unicode="&#xe007;" horiz-adv-x="682" 
d="M310 553q0 -9 -6.5 -16t-15.5 -7t-15 7t-6 16t6 16t15 7t15.5 -7t6.5 -16zM494 553q0 -9 -6 -16t-15 -7t-15.5 7t-6.5 16t6.5 16t15.5 7t15 -7t6 -16zM225 600l-106 11l106 10v-21zM225 648l-74 11l74 10v-21zM225 696l-49 10l49 10v-20zM256 735q-7 0 -12 -5t-5 -12
v-127v-3.5t1 -2.5h-4q-4 0 -7 -3.5t-3 -8.5q-1 -4 2.5 -7.5t7.5 -3.5h18q2 13 11.5 22.5t22.5 8.5q14 0 23.5 -9t11.5 -22l115 -1q2 13 12 22.5t23 9.5t23 -9.5t11 -22.5h11q5 0 8 3t3 8q0 4 -2.5 7t-5.5 4q0 6 0.5 20.5t-0.5 22.5q-3 9 -21.5 36.5t-67.5 20.5
q-1 0 -2.5 -0.5t-2.5 -1.5v36q0 7 -4.5 12.5t-11.5 5.5h-155v0zM499 633q1 -5 1 -7v-2l-59 1v36l0.5 2.5t4.5 2.5q27 3 39.5 -12.5t13.5 -20.5zM683 617q-1 72 -28 134.5t-74 109t-109 73t-133 26.5t-133 -28t-108 -75t-72 -110t-26 -134q0 -53 16 -102t43 -90l288 -485
l284 495h-1q25 40 39 87.5t14 98.5zM343 384q-51 0 -96 18.5t-79 51.5t-53.5 77t-20.5 94q0 50 19 94.5t52.5 77.5t78 52.5t96.5 19.5q51 1 96 -18t78.5 -51.5t53.5 -76.5t20 -95q0 -50 -19 -94t-52 -77.5t-78 -53t-96 -19.5v0z" />
    <glyph glyph-name="uniE009" unicode="&#xe009;" horiz-adv-x="890" 
d="M52 252v169l784 -1v-169l-784 1v0zM25 484q-8 -8 -12.5 -18t-4.5 -20v-451q0 -11 4.5 -21t12.5 -18q9 -9 21.5 -14t25.5 -5l744 -1q26 0 45 17t19 40v452q0 10 -4 20t-12 18q-9 9 -21.5 14t-26.5 5l-743 1q-14 0 -26.5 -5t-21.5 -14v0zM297 587q27 0 55 4t58 12
q16 -4 31.5 -6t30.5 -2h7h7q7 1 14.5 1.5t14.5 1.5q14 -10 30 -16.5t34 -9.5q11 -2 21.5 -2.5t21.5 -0.5q39 0 78.5 10.5t74.5 28.5t63 42t44 52l-59 26q-17 -35 -76 -67t-115 -34q17 8 33 19.5t31 27.5q19 19 32 43t14 51q0 23 -14 45.5t-41 37.5q-17 9 -34.5 13.5
t-34.5 4.5q-29 0 -53.5 -11t-43.5 -27q-5 -4 -9 -8.5t-8 -9.5q-28 70 -77 108t-102 39q-23 0 -45 -8.5t-37 -24.5t-23 -38.5t-8 -48.5q0 -12 1.5 -24.5t4.5 -25.5q12 -49 38 -84.5t60 -59.5q-5 0 -9.5 -0.5t-8.5 -0.5q-47 0 -88.5 12t-73.5 28q-31 15 -51 30.5t-21 17.5
l-54 -35q11 -12 34 -29t61 -36q37 -18 86 -32t106 -14v0zM529 733q6 16 16 24.5t22 19.5q13 11 25.5 10t25.5 -1v0q7 0 15.5 4t19.5 -1q14 -9 18 -13t5 -14q0 -11 -7.5 -25t-21.5 -27q-26 -26 -51 -36.5t-58 -15.5q-7 9 -10.5 20.5t-4.5 23.5q0 7 1.5 15t4.5 16v0zM283 802
q-3 11 -4 20.5t-2 17.5q1 19 5.5 29t10.5 17q6 6 13.5 7.5t18.5 1.5h1q25 0 61.5 -25.5t57.5 -87.5q5 -13 7.5 -26.5t2.5 -26.5q-1 -23 -8.5 -37.5t-29.5 -23.5q-2 -1 -4 -1.5t-4 -1.5q-40 14 -77 47.5t-49 89.5z" />
    <glyph glyph-name="uniE00A" unicode="&#xe00a;" horiz-adv-x="664" 
d="M289 689q7 0 15.5 1t17.5 3q5 -1 9.5 -1.5t8.5 -0.5h3h1q3 0 5 0.5t4 0.5q4 -3 9 -5t10 -3q3 0 6.5 -0.5t6.5 -0.5q23 0 45.5 11.5t31.5 28.5l-17 8q-5 -11 -22.5 -20.5t-34.5 -9.5q5 2 10 5.5t9 7.5q6 6 10 13t4 15q0 7 -4.5 14t-12.5 11q-5 3 -10 4.5t-10 1.5
q-9 0 -16 -3.5t-13 -8.5l-2.5 -2.5l-2.5 -2.5q-8 21 -22.5 32t-30.5 12q-7 0 -13.5 -2.5t-11.5 -7.5q-4 -5 -6.5 -11.5t-2.5 -14.5q0 -4 0.5 -7.5t1.5 -7.5q3 -15 11 -25.5t18 -17.5h-2.5h-2.5q-14 0 -26.5 3.5t-21.5 8.5q-10 4 -16 8.5t-6 5.5l-16 -10q3 -4 10 -9t18 -11
q11 -5 25.5 -9t32.5 -4zM357 732q2 5 5 8.5t7 6.5t7.5 4t7.5 1v0h4.5t5.5 -1q4 -3 5.5 -4.5t1.5 -4.5q0 -4 -2 -8t-7 -8q-7 -8 -14.5 -11t-17.5 -5q-2 3 -3 6t-1 7q0 2 0.5 4.5t0.5 4.5zM284 752q-1 4 -1 6.5v5.5q0 5 1 9.5t3 6.5l4 4t6 2v0q7 0 18 -9t17 -28q2 -3 2.5 -8
t0.5 -9q0 -7 -2 -11.5t-9 -7.5q-1 0 -1.5 -0.5l-0.5 -0.5q-12 4 -23 14t-15 26v0zM443 655l-220 1q-4 0 -8 -1.5t-7 -4.5q-2 -2 -3 -5t-1 -6v-130q0 -3 1 -6t3 -5q3 -3 7 -4t8 -1l219 -1q8 0 13 5t5 12v130q0 3 -1 6t-3 5q-3 2 -6 3.5t-7 1.5v0zM442 583h-221v49h221v-49z
M674 617q0 72 -27.5 134.5t-74 109t-109 73t-133.5 26.5q-70 0 -132 -28t-108 -75t-72.5 -110t-26.5 -134q1 -53 16.5 -102t43.5 -90l287 -485l284 495h-1q26 40 39.5 87.5t13.5 98.5v0zM334 384q-51 0 -96 18.5t-78.5 51.5t-53.5 77t-20 94t19 94.5t52 77.5t78 52.5
t96 19.5q51 1 96 -18t79 -51.5t53.5 -76.5t20.5 -95q0 -50 -19 -94t-52.5 -77.5t-78 -53t-96.5 -19.5v0z" />
    <glyph glyph-name="uniE00C" unicode="&#xe00c;" horiz-adv-x="876" 
d="M293 268l-122 63v275h122v-338z" />
    <glyph glyph-name="uniE00D" unicode="&#xe00d;" horiz-adv-x="676" 
d="M230 683l-14 57h-42v0q-3 -1 -5.5 -4t-2.5 -7h0.5h0.5q0 -4 3 -7.5t7 -3.5h23l55 -220h193l1 4l48 181h-267v0zM432 521l-161 -1l-35 141h233l-37 -140v0zM278 465v-0.5v-0.5q0 -9 6 -15.5t15 -6.5q8 0 14 6t7 14v2.5v1.5q0 9 -6 15.5t-15 6.5q-8 0 -14.5 -6t-6.5 -14v-3
zM406 488q-8 0 -14.5 -6.5t-6.5 -15.5t6 -15.5t15 -6.5t15.5 6.5t6.5 15.5t-6.5 15.5t-15.5 6.5v0zM355 649q-21 -1 -37 -15.5t-15 -40.5q0 -24 15 -39t40 -15q4 0 7.5 0.5t7.5 2.5q3 0 4 1t1 4v5q0 2 -1.5 3t-4.5 0t-7 -1.5t-7 -0.5q-16 -1 -28.5 9.5t-12.5 31.5
q0 18 10.5 29.5t28.5 11.5q15 0 25.5 -9t10.5 -26q0 -7 -2 -14.5t-9 -7.5q-2 0 -3 1.5t-2 4.5v20q0 8 -4.5 13.5t-16.5 5.5q-6 0 -13.5 -2.5t-7.5 -8.5q0 -2 2 -4t3 -2t1.5 0.5t1.5 0.5l6 2t7 2q3 0 5.5 -1.5t2.5 -4.5v-6q-2 0 -4 0.5t-4 0.5q-11 -1 -17 -6t-6 -13
q0 -6 4 -11t13 -5q5 0 9.5 2t7.5 6q2 -4 6 -5.5t9 -1.5q13 0 19.5 10t5.5 24q0 22 -14.5 35.5t-36.5 13.5v0zM352 577q-3 0 -4.5 1.5t-1.5 3.5q0 3 2 5.5t8 2.5h3.5h3.5v-7q-1 -2 -4 -3.5t-7 -2.5zM669 612q0 69 -26.5 130t-72 106t-105.5 70.5t-129 25.5q-68 0 -128 -27
t-105 -72.5t-70.5 -106.5t-24.5 -130q0 -52 15 -99t42 -87l279 -470l275 479h-1q24 39 37.5 85t13.5 96v0zM340 386q-50 0 -93.5 18t-76 49.5t-51.5 74.5t-20 92q0 48 18.5 91t50.5 75t75.5 51t93.5 19q49 1 93 -17.5t76.5 -50t51.5 -74.5t19 -91q1 -49 -17.5 -92t-51 -75
t-75.5 -51t-93 -19v0z" />
    <glyph glyph-name="uniE00E" unicode="&#xe00e;" horiz-adv-x="1136" 
d="M220 763l-49 197l-144 -1v-1q-12 -3 -19.5 -13t-7.5 -23v0v-1q0 -15 10.5 -26t25.5 -11l79 1l189 -757h665l3 12l166 623h-918v0zM914 204h-554l-121 484h803zM456 89q-31 -1 -52 -23t-21 -54q0 -31 21 -53.5t52 -22.5q30 0 51.5 22.5t21.5 53.5q0 32 -21.5 54.5
t-51.5 22.5v0zM825 92q-30 -1 -51.5 -23t-21.5 -54q0 -31 21.5 -53.5t51.5 -22.5q31 0 52.5 22.5t21.5 54.5q0 31 -21.5 53.5t-52.5 22.5v0zM650 644q-73 -1 -128 -50.5t-53 -139.5q2 -85 53 -136.5t137 -49.5q12 0 25.5 2t26.5 6q8 3 12 6t4 12v19q-1 7 -5.5 9t-12.5 0
q-11 -2 -24.5 -4.5t-26.5 -3.5q-55 -1 -97 34.5t-43 106.5q-2 62 35 101.5t98 41.5q52 1 88.5 -30.5t37.5 -89.5q1 -23 -7 -49.5t-30 -26.5q-8 0 -12.5 5t-4.5 14l-2 69q0 30 -15 48.5t-57 17.5q-20 0 -46.5 -8.5t-25.5 -29.5q0 -7 6 -14.5t12 -6.5q1 0 3.5 1.5t4.5 2.5
q10 5 20.5 8.5t25.5 3.5q10 1 18 -3t8 -14l1 -22q-5 1 -13 1.5t-16 0.5q-37 -1 -57.5 -18t-20.5 -45q1 -23 15 -40t43 -17q17 1 32.5 8.5t27.5 20.5q8 -16 22 -21t28 -5q44 1 67 36t22 83q-2 76 -51 122t-125 44v0zM638 399q-10 0 -15 5t-5 13q-1 10 7 18t26 8q6 1 12.5 0.5
t12.5 -1.5l1 -23q-6 -6 -16 -12.5t-23 -7.5v0z" />
    <glyph glyph-name="uniE602" unicode="&#xe602;" 
d="M925 649l-207 208q-12 11 -28.5 11t-28.5 -11l-508 -509q-5 -4 -7.5 -9t-3.5 -11l-52 -260q-2 -10 1 -19.5t10 -16.5q5 -6 12.5 -9t15.5 -3q2 0 4 0.5t4 0.5l260 52q5 1 10.5 4t9.5 7l508 508q12 12 12 28.5t-12 28.5v0zM195 185l18 89l130 -130l-89 -18zM386 166
l-152 151l313 313l152 -151zM731 511l-151 151l109 110l151 -151l-109 -110v0z" />
    <glyph glyph-name="uniE603" unicode="&#xe603;" 
d="M915 867h-475q-17 0 -29.5 -12.5t-12.5 -29.5v-236h-291q-18 0 -30 -12.5t-12 -29.5v-474q0 -18 12 -30t30 -12h808q17 0 29 12t12 30v752q0 17 -12 29.5t-29 12.5zM735 320v-2v-2v-2v-2v-5q0 -17 -12 -29.5t-30 -12.5h-286v-64q0 -17 -9 -21.5t-23 6.5l-115 97
q-13 11 -13 27t13 27l115 97q14 11 23 6.5t9 -21.5v-65h240v278q0 17 12 29.5t29 12.5h5q18 0 30 -12.5t12 -29.5v-312v0z" />
    <glyph glyph-name="uniE604" unicode="&#xe604;" 
d="M512 443q43 0 80.5 16.5t65.5 44.5t44.5 65.5t16.5 80.5t-16.5 81t-44.5 66t-65.5 44.5t-80.5 16.5t-80.5 -16.5t-65.5 -44.5t-44.5 -66t-16.5 -81t16.5 -80.5t44.5 -65.5t65.5 -44.5t80.5 -16.5zM512 752q42 0 72 -29.5t30 -72.5q0 -42 -30 -72t-72 -30t-72 30t-30 72
q0 43 30 72.5t72 29.5zM750 418q-8 17 -31 25.5t-56 -16.5q-43 -35 -97 -40.5l-54 -5.5l-54 5.5t-97 40.5q-33 25 -56 16.5t-31 -25.5q-16 -31 -0.5 -50.5t54.5 -44.5q33 -21 74 -30.5t71 -12.5l-33 -33q-35 -34 -67 -66.5t-55 -55.5q-14 -14 -14 -33.5t14 -33.5l6 -6
q14 -14 33.5 -14t33.5 14l122 123q34 -35 66 -67t55 -56q14 -14 34 -14t34 14l5 6q14 14 14 33.5t-14 33.5l-155 155q30 3 70.5 12.5t73.5 30.5q39 25 54.5 44.5t-0.5 50.5v0z" />
    <glyph glyph-name="uniE605" unicode="&#xe605;" 
d="M217 582v-481h53v-106h480v106h54v534h-587v-53v0zM644 582h53v-479h-52v479h-1zM483 582h55v-479h-55v479v0zM324 582h52v-479h-52v479v0zM749 797v52h-52v53h-373v-53h-52v-52h-108v-108h693v108h-108zM645 797h-269v52h268z" />
    <glyph glyph-name="uniE606" unicode="&#xe606;" 
d="M798 784h-572q-64 0 -110 -45.5t-46 -110.5v-273q0 -64 46 -109.5t110 -45.5h338l141 -213l45 213h48q64 0 110 45.5t46 109.5v273q0 65 -46 110.5t-110 45.5v0z" />
    <glyph glyph-name="uniE607" unicode="&#xe607;" 
d="M922 680q-23 -11 -47 -18t-50 -10q26 16 45.5 41t28.5 56q-24 -15 -51 -26t-56 -17q-23 26 -54.5 41t-67.5 15q-70 0 -119 -51.5t-49 -124.5q0 -10 1 -20t3 -20q-53 3 -102 17t-93 38t-82 56.5t-70 72.5q-10 -20 -16 -42t-6 -46q0 -46 20.5 -84.5t53.5 -62.5
q-20 1 -39.5 6.5t-36.5 15.5v-1v-1q0 -64 38.5 -112t96.5 -60q-11 -4 -22 -5.5t-22 -1.5q-8 0 -16 1t-16 3q16 -53 59 -87t98 -36q-43 -35 -96.5 -55t-112.5 -20q-10 0 -20 0.5t-20 2.5q56 -38 121.5 -58.5t136.5 -20.5q116 0 205 45.5t150 117.5t92 161t31 176v11.5v11.5
q24 18 45.5 41t38.5 50v0z" />
    <glyph glyph-name="uniE608" unicode="&#xe608;" 
d="M503 216h49l8.5 2t14.5 8q5 6 5.5 14l0.5 8l3.5 34t26.5 41q22 7 50.5 -32t58.5 -60q24 -16 39.5 -16h15.5l109 1l25.5 7.5t4.5 41.5q-1 3 -16.5 25.5t-64.5 68.5q-51 48 -45 64.5t68 98.5q38 51 53.5 82t10.5 44q-4 13 -23.5 12.5l-19.5 -0.5h-123h-5.5t-10.5 -3t-8 -8
l-3 -5l-13 -31.5t-32 -65.5q-41 -69 -60 -82.5t-26 -9.5q-16 10 -16 36v47q0 68 2 99.5t-28 38.5q-10 2 -21 3.5t-37 2.5q-33 0 -59.5 -1.5t-42.5 -9.5q-10 -5 -16.5 -13.5t-1.5 -9.5q6 -1 17.5 -4.5t18.5 -13.5q10 -13 11 -34.5l1 -21.5l1 -54.5t-18 -64.5
q-12 -7 -31.5 11.5t-56.5 82.5q-19 32 -31.5 61.5l-12.5 29.5l-2.5 5t-7.5 8q-6 5 -12.5 6.5l-6.5 1.5l-117 -1l-9.5 -1t-14.5 -7q-4 -5 -2 -13l2 -8l15.5 -35t42.5 -85.5t62.5 -106t74.5 -95.5q71 -74 137 -83.5l66 -9.5v0v0z" />
    <glyph glyph-name="uniE609" unicode="&#xe609;" 
d="M710 423h-148v-385h-150v385h-105v138h105v36v82q0 70 48.5 124.5t155.5 54.5q43 0 71.5 -3l28.5 -3l-3 -129h-28h-63q-39 0 -49.5 -16t-10.5 -45v-4.5v-1.5v-29.5v-65.5h155l-7 -138v0z" />
    <glyph glyph-name="uniE60A" unicode="&#xe60a;" 
d="M704 837h-130q-48 0 -91 -17.5t-75 -51.5t-51 -85t-19 -119q0 -81 38 -139.5t108 -87.5l-175 -302q-4 -7 -0.5 -12t10.5 -5h81q5 0 8.5 1.5t4.5 6.5l159 296h57v-296q0 -3 2.5 -5.5t5.5 -2.5h71q5 0 7 2.5t2 6.5v799q0 6 -3.5 8.5t-9.5 2.5v0zM629 391h-48q-56 0 -102 43
t-46 141q0 102 43 147t95 45h58v-376v0z" />
    <glyph glyph-name="uniE60B" unicode="&#xe60b;" 
d="M489 655q44 0 84 -18t71 -49v0q0 15 8.5 25t22.5 10h5q21 0 27.5 -15t6.5 -21v-304q-1 -15 11.5 -21t21.5 3q19 19 36 63.5t19.5 99.5t-15.5 113t-70 103q-48 42 -102.5 61t-107 20t-100 -13t-82.5 -37q-36 -26 -64.5 -65t-44 -86t-14.5 -99.5t24 -105.5q25 -57 69.5 -94
t96.5 -55.5t105.5 -19t95.5 16.5t55 -21.5t-31 -57.5q-34 -14 -92.5 -18t-124 12t-129.5 57t-107 116q-29 51 -41 117.5t0.5 135.5t54.5 133.5t119 110.5q60 36 127 49t133 4.5t127 -38t108 -78.5q49 -52 73 -122t22.5 -140.5t-26.5 -133.5t-74 -101q-43 -34 -93.5 -9
t-50.5 75l-1 21q-30 -30 -69.5 -46.5t-83.5 -16.5t-83.5 17.5t-69.5 47.5t-48 70t-18 83q0 44 18 84t48 70.5t69.5 48.5t83.5 18v0v0v0v0zM635 443q-3 64 -44.5 100t-99.5 36h-3q-66 0 -101.5 -44.5t-35.5 -103.5q0 -66 39.5 -105t97.5 -39q65 0 104.5 41t42.5 97v18z" />
    <glyph glyph-name="uniE60C" unicode="&#xe60c;" 
d="M512 195v0l185 -142q7 -6 16 -10.5t20 -4.5q21 0 36 15t15 36q0 5 -1 9t-3 9h1v0l-75 237l195 151q9 6 15 17t6 23q0 21 -14.5 35.5t-34.5 15.5v0v0h-234l-79 236v0q-5 15 -18 25.5t-30 10.5q-18 0 -32 -11.5t-18 -28.5v0v0l-77 -232h-231v0h-1q-21 0 -36 -14.5
t-15 -35.5q0 -12 5 -22t13 -17v0v0l197 -152l-73 -235q-2 -4 -3.5 -9.5t-1.5 -11.5q0 -21 15 -36t36 -15q9 0 16.5 3t13.5 8h1v0l158 121z" />
    <glyph glyph-name="uniE60D" unicode="&#xe60d;" 
d="M931 152h-838q-38 0 -65.5 -27t-27.5 -66q0 -38 27.5 -65.5t65.5 -27.5h838q38 0 65.5 27.5t27.5 65.5q0 39 -27.5 66t-65.5 27v0zM93 711h838q38 0 65.5 27t27.5 66t-27.5 66t-65.5 27h-838q-38 0 -65.5 -27t-27.5 -66t27.5 -66t65.5 -27v0zM931 525h-838
q-38 0 -65.5 -27.5t-27.5 -65.5q0 -39 27.5 -66t65.5 -27h838q38 0 65.5 27t27.5 66q0 38 -27.5 65.5t-65.5 27.5v0z" />
    <glyph glyph-name="uniE60E" unicode="&#xe60e;" 
d="M997 95l-224 223q31 49 48 105.5t17 117.5q0 87 -33 163t-90 133t-133 90t-163 33t-163 -33t-133 -90t-90 -133t-33 -163t33 -163t90 -133t133 -90t163 -33q61 0 117.5 17t105.5 48l223 -224q27 -27 65.5 -27t66.5 27q27 28 27 66.5t-27 65.5v0zM140 541q0 58 22 109
t59.5 88.5t88.5 59.5t109 22t108.5 -22t88.5 -59.5t60 -88.5t22 -109t-22 -108.5t-60 -88.5t-88.5 -60t-108.5 -22t-109 22t-88.5 60t-59.5 88.5t-22 108.5v0z" />
    <glyph glyph-name="uniE60F" unicode="&#xe60f;" 
d="M996 446q2 1 4 1.5t4 1.5q1 1 2.5 2t3.5 2q1 2 2.5 3t2.5 3q1 1 2 2.5t2 3.5t1.5 3.5t1.5 3.5q0 2 0.5 3.5t0.5 4.5l0.5 1t0.5 2v227q0 16 -11.5 27.5t-27.5 11.5h-114h-247.5h-246.5h-112l-52 133v0v0q-2 3 -3.5 5.5t-3.5 4.5q0 1 -0.5 2t-1.5 1q-2 2 -4 3l-4 2l-2 2
l-2 2h-2.5t-2.5 1q-2 0 -5 1t-6 1v0v0h-137q-16 0 -27.5 -11.5t-11.5 -28.5q0 -16 11.5 -27.5t27.5 -11.5h110l53 -133v0v0l158 -397q1 -3 32.5 -51.5t111.5 -48.5h481q16 0 27.5 11.5t11.5 27.5q0 17 -11.5 28.5t-27.5 11.5h-481q-31 0 -47 16t-21 26l557 126q1 0 2 0.5
l1 0.5v0zM1024 60q0 -41 -29 -69.5t-69 -28.5q-41 0 -70 28.5t-29 69.5t29 70t70 29q40 0 69 -29t29 -70zM583 60q0 -41 -28.5 -69.5t-69.5 -28.5t-69.5 28.5t-28.5 69.5t28.5 70t69.5 29t69.5 -29t28.5 -70z" />
    <glyph glyph-name="uniE610" unicode="&#xe610;" 
d="M938 713l-414 244q-6 3 -12.5 3t-12.5 -3l-414 -244q-6 -3 -9 -9t-3 -12v-488q0 -6 3 -12t9 -9l414 -244l6 -2t6 -1q4 0 7 1l6 2l414 244q6 3 9 9t3 12v488q0 6 -3 12t-9 9v0zM511 479l-117 68l369 212l117 -68l-369 -212v0zM511 907l107 -63l-371 -213l-104 60zM121 647
l122 -70v-241l122 -68v239l122 -70v-1v0v-433l-366 215v429v0zM536 3v433v0v1l366 210v-429l-366 -215v0z" />
    <glyph glyph-name="uniE611" unicode="&#xe611;" 
d="M510 -64l414 409q46 38 73 93t27 119q0 57 -21.5 107t-58.5 87t-87 58.5t-107 21.5q-76 0 -139.5 -38t-98.5 -100q-35 62 -98.5 100t-139.5 38q-57 0 -107 -21.5t-87 -58.5t-58.5 -87t-21.5 -107q0 -56 21 -105.5t57 -86.5l432 -429v0z" />
    <glyph glyph-name="uniE612" unicode="&#xe612;" 
d="M878 960h-48v-1024h48q39 0 67 30t28 72v820q0 42 -28 72t-67 30zM118 858v-103h93q19 0 32.5 -15t13.5 -36t-13.5 -36t-32.5 -15h-114q-19 0 -32.5 -15t-13.5 -36q0 -22 13.5 -37t32.5 -15h114q19 0 32.5 -15t13.5 -36t-13.5 -36t-32.5 -15h-114q-19 0 -32.5 -15
t-13.5 -36t13.5 -36t32.5 -15h114q19 0 32.5 -15t13.5 -37q0 -21 -13.5 -36t-32.5 -15h-114q-19 0 -32.5 -15t-13.5 -36t13.5 -36t32.5 -15h21v-103q0 -42 28 -72t67 -30h570v1024h-570q-39 0 -67 -30t-28 -72v0z" />
    <glyph glyph-name="uniE613" unicode="&#xe613;" 
d="M682 448l256 256q35 35 35 84.5t-35 85.5q-36 35 -85.5 35t-84.5 -35l-256 -256l-256 255q-35 35 -84.5 35t-85.5 -35q-35 -36 -35 -85.5t35 -84.5l255 -255l-254 -255q-35 -35 -35 -84.5t35 -85.5q35 -35 85 -35t85 35l255 255l255 -256q35 -35 84.5 -35t85.5 35
q35 36 35 85.5t-35 84.5z" />
    <glyph glyph-name="uniE614" unicode="&#xe614;" 
d="M102 465h137v-137h-137v137zM273 465h137v-137h-137v137v0zM444 465h136v-137h-136v137v0zM614 465h137v-137h-137v137zM785 465h137v-137h-137v137zM102 294h137v-136h-137v136zM273 294h137v-136h-137v136v0zM444 294h136v-136h-136v136v0zM614 294h137v-136h-137v136z
M785 294h137v-136h-137v136zM102 56q0 -29 20 -49t49 -20h68v137h-137v-68v0zM273 124h137v-137h-137v137v0zM444 124h136v-137h-136v137v0zM614 124h137v-137h-137v137zM785 -13h68q29 0 49 20t20 49v68h-137v-137v0zM853 738h-136v137q0 14 -10 24t-24 10t-24 -10t-10 -24
v-137h-274v137q0 14 -10 24t-24 10t-24 -10t-10 -24v-137h-136q-29 0 -49 -20t-20 -48v-171h820v171q0 28 -20 48t-49 20v0zM375 602h-68v68h68v-68zM717 602h-68v68h68v-68z" />
    <glyph glyph-name="uniE615" unicode="&#xe615;" 
d="M678 359l69 -200h-55v-88h332v88h-63l-239 641l-210 -395l-210 395l-239 -641h-63v-88h332v88h-55l69 200l166 -295l166 295v0z" />
    <glyph glyph-name="uniE616" unicode="&#xe616;" 
d="M874 501v99h-72v-99h-106v-73h99v-99h73v99h105v73h-99v0zM341 507v-112h151q-10 -49 -51 -83.5t-100 -34.5q-69 0 -120.5 51t-51.5 120t51.5 120t120.5 51q29 0 57 -9.5t48 -29.5l86 85q-40 30 -86 51.5t-105 21.5q-60 0 -112.5 -23t-92 -62.5t-62.5 -92.5t-23 -112
t23 -112t62.5 -92.5t92 -62.5t112.5 -23q61 0 112 21t87.5 59t56.5 90t20 113q0 15 -0.5 33t-5.5 33h-42.5h-93h-92.5h-42v0z" />
    <glyph glyph-name="uniE617" unicode="&#xe617;" 
d="M954 858h-500q-29 0 -49.5 -26t-20.5 -55v-326q0 -29 20.5 -41.5t49.5 -12.5h326l142 -144v144h32q29 0 49.5 12.5t20.5 41.5v326q0 29 -20.5 55t-49.5 26v0zM333 403v327h-246q-33 0 -60 -34.5t-27 -66.5v-367q0 -33 27 -51.5t60 -18.5h41v-153l155 153h366
q33 0 50.5 18.5t17.5 51.5v84h-311q-29 0 -51 14t-22 43v0z" />
    <glyph glyph-name="uniE618" unicode="&#xe618;" 
d="M879 848h-144q-3 15 -14 25t-27 10h-104v34q0 10 -4 18.5t-12 14.5q-7 7 -16.5 9t-18.5 0l-403 -88q-15 -3 -24.5 -15t-9.5 -27v-789q0 -16 10.5 -28t25.5 -14l404 -62h3h3q8 0 15 2.5t13 7.5q5 5 8.5 12t4.5 15h105q17 0 28.5 11.5t13.5 27.5h143q18 0 30.5 12.5
t12.5 30.5v750q0 18 -12.5 30.5t-30.5 12.5v0zM187 794l319 70v-25v-224v-0.5v-0.5v0v0v-186v0v0v-1v0v-186v0v-1v0v-1v-184v0v0v0v0v-3v-1v0v-22l-319 48v717v0zM837 98h-247v100h180q17 0 29.5 12.5t12.5 29.5q0 18 -12.5 30.5t-29.5 12.5h-180v102h180q17 0 29.5 12.5
t12.5 30.5q0 17 -12.5 30t-29.5 13h-180v100h180q17 0 29.5 13t12.5 30q0 18 -12.5 30.5t-29.5 12.5h-180v105h247v-664v0z" />
    <glyph glyph-name="uniE619" unicode="&#xe619;" 
d="M780 909q-143 -9 -271.5 -71t-227.5 -163t-160.5 -231.5t-69.5 -276.5q-2 -35 23 -67t55.5 -56.5t56.5 -39l26 -14.5q11 -5 24 -1t20 16l150 232q7 11 6.5 25.5t-9.5 22.5l-90 92q-9 9 -8 22t10 22l227 231q10 10 22.5 10.5t21.5 -7.5l85 -87q8 -8 22 -8.5t25 7.5
l241 180q11 8 13.5 20.5t-5.5 22.5l-16 19t-42.5 42t-60 41.5t-68.5 16.5z" />
    <glyph glyph-name="uniE61A" unicode="&#xe61a;" 
d="M508 399l432 407h-5.5h-5.5h-834q-5 0 -10.5 -0.5t-11.5 -1.5l435 -405v0zM552 264q-9 -8 -20.5 -12.5t-22.5 -4.5q-12 0 -23 4.5t-20 12.5l-466 433v-511q0 -40 28 -68t67 -28h834q39 0 67 28t28 68v523l-472 -445v0z" />
    <glyph glyph-name="uniE61B" unicode="&#xe61b;" 
d="M333 550q0 -42 -30 -72t-73 -30q-42 0 -72 30t-30 72q0 43 30 73t72 30q43 0 73 -30t30 -73zM896 550q0 -42 -30 -72t-72 -30q-43 0 -73 30t-30 72q0 43 30 73t73 30q42 0 72 -30t30 -73zM666 602q0 -64 -45 -109t-109 -45t-109 45t-45 109q0 63 45 108t109 45t109 -45
t45 -108zM1024 188q-2 51 -20.5 95.5t-49.5 78t-72.5 52.5t-87.5 19q-30 0 -57 -7.5t-51 -21.5q54 -40 89 -102t42 -136h196q4 0 7.5 4t3.5 9v6v1.5v1.5v0zM338 404q-24 14 -51 21.5t-57 7.5q-46 0 -87.5 -19t-72.5 -52.5t-49.5 -78t-20.5 -95.5v-1.5v-1.5v-6q0 -5 3.5 -9
t7.5 -4h196q7 74 42 136t89 102v0zM512 428q-57 0 -107.5 -23t-88.5 -62.5t-60.5 -93t-24.5 -114.5l-0.5 -1l-0.5 -1v-8q0 -6 4.5 -8t9.5 -2h536q5 0 9.5 2t4.5 8v8l-0.5 1l-0.5 1q-2 61 -24.5 114.5t-60.5 93t-88.5 62.5t-107.5 23v0z" />
    <glyph glyph-name="uniE61C" unicode="&#xe61c;" 
d="M257 473q-53 0 -91.5 16.5t-64 46t-38 69t-12.5 86.5q0 46 12.5 86t38 69.5t64 46t91.5 16.5q52 0 90.5 -16.5t64 -46t38 -69.5t12.5 -86q0 -47 -12.5 -86.5t-38 -69t-64 -46t-90.5 -16.5v0zM328 47q-17 -26 -30 -33.5t-34 -7.5h-63q-25 0 -31.5 16t10.5 41l527 793
q17 26 30 33.5t34 7.5h63q25 0 31 -16t-10 -41l-527 -793v0zM257 792q-30 0 -43.5 -27t-13.5 -74t13.5 -74t43.5 -27q29 0 42.5 27t13.5 74t-13.5 74t-42.5 27v0zM767 -13q-51 0 -89.5 16.5t-64.5 46t-38.5 69.5t-12.5 86q0 47 12.5 86.5t38 69t64 46t90.5 16.5
q53 0 91.5 -16.5t64 -46t38 -69t12.5 -86.5q0 -46 -12.5 -86t-38 -69.5t-64 -46t-91.5 -16.5zM767 306q-29 0 -42.5 -27t-13.5 -74t13.5 -74t42.5 -27q30 0 43.5 27t13.5 74t-13.5 74t-43.5 27v0z" />
    <glyph glyph-name="uniE61D" unicode="&#xe61d;" 
d="M630 195l-107 107q-57 -24 -120 -12.5t-110 57.5q-46 47 -57 110t13 121l161 -158l111 113l-87 84l-74 74q57 24 120.5 12.5t109.5 -57.5q47 -47 58.5 -110t-12.5 -121l280 -280q26 32 46 68.5t33.5 76t21 82t7.5 86.5q0 106 -40 199.5t-109.5 163t-163 109.5t-199.5 40
t-199.5 -40t-163 -109.5t-109.5 -163t-40 -199.5t40 -199.5t109.5 -163t163 -109.5t199.5 -40q80 0 153 23.5t135 65.5l-170 170v0z" />
    <glyph glyph-name="uniE61E" unicode="&#xe61e;" 
d="M836 837q0 25 -15.5 44.5t-38.5 27.5q-39 23 -110.5 37t-159.5 14t-159.5 -14t-110.5 -37q-23 -8 -38.5 -27.5t-15.5 -44.5l-60 -351v-313q0 -31 22.5 -53.5t54.5 -22.5v0v-88q0 -30 22 -51.5t52 -21.5q31 0 52.5 21.5t21.5 51.5v88h329v-88q0 -30 21.5 -51.5t52.5 -21.5
t52.5 21.5t21.5 51.5v89q28 4 47 25t19 50v313l-60 351v0zM376 886h272q10 0 17 -7t7 -17q0 -9 -7 -16t-17 -7h-272q-10 0 -17 7t-7 16q0 10 7 17t17 7v0zM279 188q-30 0 -52 21.5t-22 51.5q0 31 22 52.5t52 21.5q31 0 52.5 -21.5t21.5 -52.5q0 -30 -21.5 -51.5t-52.5 -21.5
zM756 188q-31 0 -52.5 21.5t-21.5 51.5q0 31 21.5 52.5t52.5 21.5t52.5 -21.5t21.5 -52.5q0 -30 -21.5 -51.5t-52.5 -21.5zM800 490h-576q-12 0 -21 8.5t-9 21.5l30 230q0 13 9 21.5t21 8.5h516q12 0 21 -8.5t9 -21.5l30 -230q0 -13 -9 -21.5t-21 -8.5v0z" />
    <glyph glyph-name="uniE61F" unicode="&#xe61f;" horiz-adv-x="2133" 
d="M1721 234q-58 0 -100 -43.5t-42 -105.5t42 -105.5t100 -43.5q59 0 100 43.5t41 105.5t-41 105.5t-100 43.5zM368 234q-58 0 -99.5 -43.5t-41.5 -105.5t41.5 -105.5t99.5 -43.5q59 0 100.5 43.5t41.5 105.5t-41.5 105.5t-100.5 43.5zM2062 320h-21q3 0 5 8t2 18l-4 46
q0 63 -61.5 99t-149 53t-184 20.5t-165.5 2.5q-2 74 -47 144.5t-111.5 126t-143 89t-139.5 33.5h-113.5h-150.5h-154.5h-124.5q-72 0 -150.5 -30.5t-144 -82.5t-107.5 -122t-42 -149q0 -26 -0.5 -66.5t-1 -82.5t-0.5 -79.5t2 -56.5q-24 -6 -40 -14t-16 -35q0 -31 21 -40.5
t51 -9.5h71q5 32 24.5 64.5t49.5 58.5t68.5 43t81.5 17q44 0 82.5 -18t69 -49t50 -71t25.5 -84l902 -4q5 44 24.5 82t49.5 65.5t68.5 43.5t82.5 16q43 0 81.5 -16t69 -44.5t50 -67t25.5 -82.5l116 -1q29 0 50 28.5t20 59.5q0 31 -20.5 59t-50.5 28v0zM191 552l-1.5 15
t6.5 47q4 17 26 57t64 79t106 65t151 14q25 0 29.5 -16.5l4.5 -16.5l1 -239l-387 -5v0zM1352 552l-675 5l1 239l4.5 16.5t30.5 16.5q2 0 49.5 0.5t104 1t103.5 0.5h50q81 1 140.5 -27t99.5 -65t61.5 -73t25.5 -52q8 -32 6.5 -47l-1.5 -15v0z" />
    <glyph glyph-name="uniE620" unicode="&#xe620;" 
d="M824 465l-133 75l-109 175q-2 2 -4 4.5t-4 4.5q-12 14 -30 23t-39 9q-11 0 -21 -3t-19 -7q-2 -1 -4 -1.5t-3 -1.5l-177 -106q-6 -3 -10 -8t-7 -11q0 -1 -0.5 -1.5t-0.5 -1.5q-1 -1 -1 -2t-1 -3v0v0l-33 -163q-4 -16 5 -30t24 -17q16 -4 29.5 5t17.5 25l28 139l66 39
l-78 -402l-130 -181q-13 -18 -10 -41t21 -37q19 -14 41.5 -10.5t36.5 22.5l137 191q1 0 1 0.5t1 1.5l0.5 0.5t0.5 1.5q1 2 2 3.5t2 3.5q0 1 0.5 2t0.5 2t0.5 3t1.5 3v1v1l24 124l130 -115l84 -210q9 -22 30 -31t42 -1q21 9 30 30t1 43l-88 219q0 1 -0.5 1.5t-0.5 1.5
q-3 6 -6.5 11.5t-8.5 10.5l-123 110l39 192l40 -64q2 -4 4.5 -6.5t5.5 -4.5q2 -2 4 -3.5t4 -3.5l148 -82q15 -8 31 -3.5t24 18.5q8 15 3.5 31t-19.5 24v0zM636 873q0 -36 -25 -61.5t-61 -25.5q-35 0 -60 25.5t-25 61.5t25 61.5t60 25.5q36 0 61 -25.5t25 -61.5v0z" />
    <glyph glyph-name="uniE621" unicode="&#xe621;" 
d="M768 243q-25 0 -47.5 -7.5t-41.5 -21.5l-276 193q3 10 5 20t2 21t-2 21t-5 20l276 193q19 -14 41.5 -21.5t47.5 -7.5q64 0 109 45t45 108q0 64 -45 109t-109 45t-109 -45t-45 -109q0 -10 2 -20.5t5 -19.5l-276 -193q-19 13 -41.5 21t-47.5 8q-64 0 -109 -45t-45 -109
t45 -109t109 -45q25 0 47.5 8t41.5 21l276 -193q-3 -9 -5 -19.5t-2 -20.5q0 -64 45 -109t109 -45t109 45t45 109q0 63 -45 108t-109 45v0z" />
    <glyph glyph-name="uniE622" unicode="&#xe622;" 
d="M888 576h-89v333h-574v-333h-89q-35 0 -60 -25.5t-25 -60.5v-417q0 -35 25 -60.5t60 -25.5h752q35 0 60 25.5t25 60.5v417q0 35 -25 60.5t-60 25.5zM273 860h477v-497h-477v497v0zM754 95h-485v94h485v-94v0zM639 798h-257q-16 0 -26.5 -11t-10.5 -26q0 -16 10.5 -27
t26.5 -11h257q16 0 26.5 11t10.5 27q0 15 -10.5 26t-26.5 11zM639 512h-257q-16 0 -26.5 -11t-10.5 -27q0 -15 10.5 -26t26.5 -11h257q16 0 26.5 11t10.5 26q0 16 -10.5 27t-26.5 11zM639 655h-257q-16 0 -26.5 -11t-10.5 -27q0 -15 10.5 -26t26.5 -11h257q16 0 26.5 11
t10.5 26q0 16 -10.5 27t-26.5 11z" />
    <glyph glyph-name="uniE623" unicode="&#xe623;" 
d="M792 752l26 37l19 -12q3 -2 6.5 -3t7.5 -1q6 0 12 3t9 9q6 9 4 19t-11 16l-81 52q-9 5 -19.5 3t-16.5 -11t-3.5 -19.5t11.5 -15.5l18 -12l-24 -36q-42 25 -89 41t-97 22v40q0 3 -0.5 5.5t-0.5 5.5h8q20 0 34.5 22.5t16.5 42.5h-220q2 -20 16.5 -42.5t35.5 -22.5h8
q-1 -3 -1.5 -5.5t-0.5 -5.5v-40q-86 -10 -160.5 -49t-130 -99.5t-87 -138.5t-31.5 -166q0 -94 36.5 -177t99 -144.5t146.5 -97.5t179 -36t179 36t146.5 97.5t99 144.5t36.5 177q0 55 -13 107t-36.5 98t-56.5 85.5t-75 70.5v0zM512 38q-74 0 -139 28t-113.5 75.5t-77 112
t-28.5 137.5t28.5 137.5t77 112.5t113.5 76t139 28t139 -28t113.5 -76t77 -112.5t28.5 -137.5t-28.5 -137.5t-77 -112t-113.5 -75.5t-139 -28v0zM508 658q-17 0 -28.5 -10t-11.5 -24l-25 -298q0 -14 26.5 -23.5t42.5 -8.5q17 0 43 10t26 24l-32 297q-1 14 -12.5 23.5
t-28.5 9.5v0z" />
    <glyph glyph-name="uniE624" unicode="&#xe624;" 
d="M51 448q0 48 34 81.5t81 33.5h692q47 0 81 -33.5t34 -81.5t-34 -81.5t-81 -33.5h-692q-47 0 -81 33.5t-34 81.5v0z" />
    <glyph glyph-name="uniE625" unicode="&#xe625;" 
d="M858 563h-232v231q0 47 -33.5 81t-81.5 34t-81.5 -34t-33.5 -81v-231h-230q-47 0 -81 -33.5t-34 -81.5t34 -81.5t81 -33.5h230v-231q0 -47 33.5 -81t81.5 -34t81.5 34t33.5 81v231h232q47 0 81 33.5t34 81.5t-34 81.5t-81 33.5z" />
    <glyph glyph-name="uniE626" unicode="&#xe626;" 
d="M512 960q-106 0 -199.5 -40t-163 -109.5t-109.5 -163t-40 -199.5t40 -199.5t109.5 -163t163 -109.5t199.5 -40t199.5 40t163 109.5t109.5 163t40 199.5t-40 199.5t-109.5 163t-163 109.5t-199.5 40zM512 29q-87 0 -163 33t-133 90t-90 133t-33 163t33 163t90 133t133 90
t163 33t163 -33t133 -90t90 -133t33 -163t-33 -163t-90 -133t-133 -90t-163 -33zM672 499v0l-200 146q-8 6 -21 9t-23 3q-26 0 -48 -18t-22 -44v-294q0 -26 22 -44t48 -18q10 0 21.5 3t19.5 9l204 146h-1q12 0 19 17.5t7 33.5t-7 29.5t-19 21.5v0z" />
    <glyph glyph-name="uniE627" unicode="&#xe627;" 
d="M497 448l297 297q37 37 37 89t-37 89t-89 37t-89 -37l-386 -386q-37 -37 -37 -89t37 -89l386 -386q37 -37 89 -37t89 37t37 89t-37 89l-297 297v0z" />
    <glyph glyph-name="uniE628" unicode="&#xe628;" 
d="M794 537l-386 386q-37 37 -89 37t-89 -37t-37 -89t37 -89l297 -297l-297 -297q-37 -37 -37 -89t37 -89t89 -37t89 37l386 386q37 37 37 89t-37 89z" />
    <glyph glyph-name="uniE629" unicode="&#xe629;" 
d="M987 330l-386 386q-37 37 -89 37t-89 -37l-386 -386q-37 -37 -37 -89t37 -89t89 -37t89 37l297 297l297 -297q37 -37 89 -37t89 37t37 89t-37 89v0z" />
    <glyph glyph-name="uniE62A" unicode="&#xe62a;" 
d="M987 716q-37 37 -89 37t-89 -37l-297 -297l-297 297q-37 37 -89 37t-89 -37t-37 -89t37 -89l386 -386q37 -37 89 -37t89 37l386 386q37 37 37 89t-37 89v0z" />
    <glyph glyph-name="uniE62B" unicode="&#xe62b;" 
d="M212 934h59l40 -151l37 151h60l-68 -225v-153h-59v153l-69 225v0zM405 625q0 -37 19 -56t57 -19q32 0 53.5 20t21.5 55v137q0 33 -21.5 54t-53.5 21q-34 0 -55 -20.5t-21 -54.5v-137v0zM459 757q0 12 5 19.5t16 7.5q12 0 17.5 -7.5t5.5 -19.5v-129q0 -12 -5.5 -19.5
t-16.5 -7.5q-10 0 -16 7.5t-6 19.5v129v0zM696 835v-212q-4 -6 -13.5 -13.5t-16.5 -7.5q-9 0 -11.5 5t-2.5 14v214h-52v-234q0 -20 7.5 -35t28.5 -15q12 0 27.5 7.5t32.5 27.5v-30h52v279h-52v0zM620 262q3 -3 4 -8.5t1 -11.5v-138q0 -6 -1 -10.5t-3 -7.5q-4 -5 -11.5 -5.5
t-13.5 2.5l-6 4t-6 6v165q2 3 4.5 5t5.5 3q7 4 14 3t12 -7v0zM786 268q-13 0 -17.5 -8.5t-4.5 -22.5v-27h44v27q0 14 -4 22.5t-18 8.5v0zM937 72q0 -49 -35 -84t-84 -35h-612q-49 0 -84 35t-35 84v301q0 49 35 84t84 35h612q49 0 84 -35t35 -84v-301zM288 350h57v53h-171
v-53h58v-308h56v308v0zM486 308h-50v-202q-4 -5 -13 -12.5t-16 -7.5q-8 0 -10.5 5t-2.5 13v204h-49v-222q0 -41 21.5 -46t41.5 7q7 4 14 10t14 14v-29h50v266v0zM676 245q0 27 -10.5 46.5t-37.5 19.5q-13 0 -24.5 -7t-19.5 -17v116h-50v-361h50v21q10 -13 21.5 -18.5
t25.5 -5.5q25 0 35 16.5t10 41.5v148v0zM859 237q0 36 -17.5 57t-52.5 21q-34 0 -55 -22t-21 -56v-120q0 -36 18 -59t54 -23q39 0 56.5 22t17.5 60v20h-51v-18q0 -18 -3 -28t-19 -10q-15 0 -18.5 11.5t-3.5 26.5v50h95v68v0v0z" />
    <glyph glyph-name="uniE62C" unicode="&#xe62c;" 
d="M154 504v355l22 7.5t146 50.5l67.5 21.5t132.5 21.5h62h105t61.5 -28t35.5 -56l7 -30t-7 -48l27.5 -16.5t29.5 -50.5l2 -17t-15 -47l15.5 -25.5t19.5 -70.5l1.5 -12t-20.5 -30l16 -39.5t5 -67.5l-15.5 -35.5t-46.5 -33.5l-35 2t-78.5 5t-81.5 5.5t-44 3.5q-12 2 -22 0
t-33 -16l-2 -17t32 -63l28.5 -60t38.5 -105l-3 -58.5t-68 -102.5l-23.5 -9.5t-42.5 9.5l-4 17t-9 82l-9 41.5t-45 85.5l-54 52.5t-76 106.5l-32 63.5t-88 108.5v0z" />
    <glyph glyph-name="uniE62D" unicode="&#xe62d;" 
d="M154 392v-355l22 -7.5t146 -50.5l67.5 -21.5t132.5 -21.5h62h105t61.5 28t35.5 56l7 30t-7 48l27.5 16.5t29.5 50.5l2 17t-15 47l15.5 25.5t19.5 70.5l1.5 12t-20.5 30l16 39.5t5 67.5l-15.5 35.5t-46.5 33.5l-35 -2t-78.5 -5t-81.5 -5.5t-44 -3.5q-12 -2 -22 0t-33 16
l-2 17t32 63l28.5 60t38.5 105l-3 58.5t-68 102.5l-23.5 9.5t-42.5 -9.5l-4 -17t-9 -82l-9 -41.5t-45 -85.5l-54 -52.5t-76 -106.5l-32 -63.5t-88 -108.5v0z" />
    <glyph glyph-name="uniE62E" unicode="&#xe62e;" 
d="M282 793q0 -47 -34 -81t-82 -34q-47 0 -81 34t-34 81q0 48 34 81.5t81 33.5q48 0 82 -33.5t34 -81.5zM282 448q0 -48 -34 -81.5t-82 -33.5q-47 0 -81 33.5t-34 81.5t34 81.5t81 33.5q48 0 82 -33.5t34 -81.5zM282 102q0 -47 -34 -81t-82 -34q-47 0 -81 34t-34 81
q0 48 34 82t81 34q48 0 82 -34t34 -82zM845 218h-320q-53 0 -90.5 -34t-37.5 -82t37.5 -81.5t90.5 -33.5h320q53 0 90.5 33.5t37.5 81.5t-37.5 82t-90.5 34zM525 678h320q53 0 90.5 33.5t37.5 81.5t-37.5 82t-90.5 34h-320q-53 0 -90.5 -34t-37.5 -82t37.5 -81.5t90.5 -33.5
zM845 576h-320q-53 0 -90.5 -34t-37.5 -82q0 -47 37.5 -80.5t90.5 -33.5h320q53 0 90.5 33.5t37.5 80.5q0 48 -37.5 82t-90.5 34z" />
    <glyph glyph-name="uniE62F" unicode="&#xe62f;" 
d="M282 794q0 -48 -34 -82t-82 -34q-47 0 -81 34t-34 82q0 47 34 81t81 34q48 0 82 -34t34 -81v0zM627 794q0 -48 -33.5 -82t-81.5 -34t-81.5 34t-33.5 82q0 47 33.5 81t81.5 34t81.5 -34t33.5 -81v0zM973 794q0 -48 -34 -82t-81 -34q-48 0 -82 34t-34 82q0 47 34 81t82 34
q47 0 81 -34t34 -81v0zM282 448q0 -48 -34 -81.5t-82 -33.5q-47 0 -81 33.5t-34 81.5t34 81.5t81 33.5q48 0 82 -33.5t34 -81.5zM627 448q0 -48 -33.5 -81.5t-81.5 -33.5t-81.5 33.5t-33.5 81.5t33.5 81.5t81.5 33.5t81.5 -33.5t33.5 -81.5zM973 448q0 -48 -34 -81.5
t-81 -33.5q-48 0 -82 33.5t-34 81.5t34 81.5t82 33.5q47 0 81 -33.5t34 -81.5zM282 102q0 -47 -34 -81t-82 -34q-47 0 -81 34t-34 81q0 48 34 82t81 34q48 0 82 -34t34 -82zM627 102q0 -47 -33.5 -81t-81.5 -34t-81.5 34t-33.5 81q0 48 33.5 82t81.5 34t81.5 -34t33.5 -82z
M973 102q0 -47 -34 -81t-81 -34q-48 0 -82 34t-34 81q0 48 34 82t82 34q47 0 81 -34t34 -82z" />
    <glyph glyph-name="uniE630" unicode="&#xe630;" horiz-adv-x="652" 
d="M293 659h196v45h-196v49l-141 -71l141 -71v48zM500 556l-142 71v-49h-195v-45h195v-48zM646 610q0 68 -26 128t-69.5 104t-102 69.5t-124.5 25.5q-67 -1 -125 -27t-101 -71t-68 -105t-24 -128q0 -51 14.5 -97.5t40.5 -85.5l270 -463l266 472h-1q24 38 37 83.5t13 94.5v0z
M327 387q-48 0 -90 18t-74 49t-50.5 73t-18.5 90t18 90.5t49 74t73 50t90 18.5q48 1 90.5 -17t74 -49t50 -73.5t18.5 -90.5q1 -48 -17 -90t-49.5 -73.5t-73.5 -50t-90 -19.5v0z" />
    <glyph glyph-name="uniE631" unicode="&#xe631;" horiz-adv-x="652" 
d="M646 608q0 68 -26 127.5t-69.5 104t-102 70t-124.5 24.5q-67 0 -125 -26.5t-101 -71t-68 -105t-24 -128.5q0 -51 14.5 -97.5t40.5 -85.5l270 -463l266 472h-1q24 39 37 84t13 95zM327 385q-48 -1 -90 17t-74 49.5t-50.5 73.5t-18.5 90t18 90t49 74t73 50.5t90 18.5
t90.5 -17.5t74 -49t50 -73.5t18.5 -90q1 -48 -17 -90.5t-49.5 -74t-73.5 -50t-90 -18.5v0zM267 678q8 0 16.5 1t17.5 4l10 -2t9 -1h2h2q2 1 4.5 1h4.5q4 -3 9 -5t10 -3q3 0 6.5 -0.5t6.5 -0.5q24 0 46.5 12t31.5 30l-17 8q-5 -11 -23 -21t-35 -11q5 3 10 6.5t9 8.5
q6 6 10 13.5t4 15.5q0 7 -4 14t-12 12q-5 3 -10.5 4.5t-10.5 1.5q-9 0 -16.5 -3.5t-12.5 -8.5l-3 -3l-3 -3q-8 22 -22.5 33.5t-30.5 12.5q-7 0 -13.5 -2.5t-11.5 -8.5q-5 -5 -7 -11.5t-2 -15.5q0 -3 0.5 -7t0.5 -8q4 -15 12 -26.5t18 -18.5h-2.5h-3.5q-14 0 -26.5 3.5
t-21.5 8.5q-10 5 -16 10l-6 5l-16 -11q3 -3 10 -8.5t18 -11.5q11 -5 26 -9.5t32 -4.5v0zM337 723q2 5 5 9.5t7 8.5q3 3 7 4.5t8 1.5v0q2 0 4.5 -0.5t5.5 -2.5q5 -2 6 -4.5t1 -5.5t-2 -8t-6 -9q-8 -8 -15.5 -11.5t-17.5 -5.5q-2 3 -3 6.5t-2 7.5q0 2 0.5 4.5t1.5 4.5z
M263 744q-1 4 -1.5 7t-0.5 5q0 6 1.5 10t3.5 6t4 2.5l6 1.5v0q7 -1 18 -9t18 -28q1 -4 2 -8.5t1 -8.5q0 -7 -2.5 -11.5t-9.5 -7.5l-1 -0.5l-1 -0.5q-12 5 -23 15t-15 27v0zM453 637q-3 3 -7 4.5t-8 1.5h-223q-4 0 -8 -1.5t-6 -3.5q-3 -3 -4 -6t-1 -6v-136q0 -3 1 -6t4 -5
q2 -3 6 -4.5t8 -1.5h223q8 0 14 5t6 12v136q0 3 -1.5 6t-3.5 5v0zM444 568h-235v51l235 -1v-50v0z" />
    <glyph glyph-name="uniE632" unicode="&#xe632;" horiz-adv-x="652" 
d="M263 586q-34 -30 -55 -50t-24 -22q-9 -9 -9 -22t9 -22t22 -9t22 9q2 3 22 24t51 54l-4 4l-34 34v0zM409 569v0h-0.5h-0.5h-2h-4h-4q-4 0 -8.5 1t-9.5 3q-6 2 -11 5.5t-8 5.5l-16 16l-35 35l-17 17q-2 3 -4.5 6.5t-3.5 7.5t-1 8.5v7.5v8v3v0q0 5 -1 11t-3 11
q-7 17 -24 29.5t-36 15.5l25 -58q-3 -7 -8.5 -12.5t-12.5 -8.5t-14.5 -3t-14.5 2l-26 58q-10 -16 -12 -37t5 -37q6 -16 19 -23.5t29 -7.5v0v0v0h2.5h3.5h1h4t4 -1h1v0h1.5h1.5t1.5 -0.5t1.5 -0.5h0.5h0.5q1 -1 2.5 -1t3.5 -1q5 -2 10 -5.5t9 -6.5l16 -16l37 -37l14 -14
q3 -3 5 -6.5t4 -8.5q1 -3 1 -7.5v-7.5q-1 -5 -1 -8v-3q0 -6 1 -11.5t4 -10.5q7 -17 23.5 -29.5t35.5 -15.5l-25 58q3 7 8.5 12t12.5 8q7 4 15 4t15 -2l25 -58q11 16 13 37t-5 37q-7 15 -20 22.5t-28 8.5v0zM356 613l3 -3q13 14 26 28.5t27 29.5l43 -43l56 56l-85 86
l-10.5 -1t-26.5 1q-14 2 -23.5 5.5l-9.5 3.5l-26 -26l53 -53q-15 -14 -29.5 -27t-28.5 -26l31 -31v0zM646 608q0 68 -26 127.5t-69.5 104t-102 70t-124.5 24.5q-67 0 -125 -26.5t-101 -71t-68 -105t-24 -128.5q0 -51 14.5 -97.5t40.5 -85.5l270 -463l266 472h-1q24 39 37 84
t13 95v0zM327 385q-48 -1 -90 17t-74 49.5t-50.5 73.5t-18.5 90t18 90t49 74t73 50.5t90 18.5t90.5 -17.5t74 -49t50 -73.5t18.5 -90q1 -48 -17 -90.5t-49.5 -74t-73.5 -50t-90 -18.5v0z" />
    <glyph glyph-name="uniE633" unicode="&#xe633;" horiz-adv-x="652" 
d="M483 577q-3 -2 -3.5 -5t1.5 -6q3 -2 6 -2.5t6 1.5q2 2 2.5 5t-1.5 6q-2 2 -5 2.5t-6 -1.5zM494 697q-6 8 -15 9t-16 -4q-7 -6 -8.5 -15t4.5 -16q5 -8 14 -9t17 4q7 6 8.5 15t-4.5 16zM437 718q11 8 13 21t-6 23q-8 11 -21 12.5t-24 -5.5q-10 -8 -12 -21.5t6 -23.5
q8 -11 21 -12.5t23 6.5v0zM305 800q-12 -9 -14 -24.5t7 -27.5q9 -13 24.5 -15t27.5 7q13 10 15 25t-8 28q-9 12 -24 14t-28 -7v0zM195 772q-16 -12 -18.5 -31.5t8.5 -35.5q12 -16 32 -18.5t35 9.5q16 12 19 31.5t-9 35.5t-31.5 18.5t-35.5 -9.5v0zM176 652q3 3 3.5 6.5
t-2.5 6.5q-2 3 -6 3.5t-7 -1.5q-3 -3 -3.5 -7t2.5 -7q2 -3 6 -3t7 2zM171 593q5 4 6 11t-4 13q-4 5 -11 5.5t-12 -3.5q-6 -5 -6.5 -11.5t3.5 -12.5q5 -5 11.5 -6t12.5 4v0zM163 558q-7 -6 -8 -15.5t5 -16.5t15.5 -8t16.5 5q8 6 9 15.5t-5 16.5t-15.5 8t-17.5 -5v0zM219 509
q-10 -8 -11 -20.5t7 -22.5q8 -9 20.5 -10.5t22.5 6.5t11 20.5t-7 22.5t-20.5 11t-22.5 -7v0zM303 489q-11 -9 -12.5 -24t7.5 -27q10 -11 25 -12.5t26 7.5q12 10 13.5 25t-8.5 27q-9 11 -24 12.5t-27 -8.5v0zM393 548q-15 -13 -17 -32.5t10 -35.5q13 -15 33 -17t35 11
q16 13 17.5 32.5t-10.5 34.5q-13 16 -33 18t-35 -11zM646 608q0 68 -26 127.5t-69.5 104t-102 70t-124.5 24.5q-67 0 -125 -26.5t-101 -71t-68 -105t-24 -128.5q0 -51 14.5 -97.5t40.5 -85.5l270 -463l266 472h-1q24 39 37 84t13 95v0zM327 385q-48 -1 -90 17t-74 49.5
t-50.5 73.5t-18.5 90t18 90t49 74t73 50.5t90 18.5t90.5 -17.5t74 -49t50 -73.5t18.5 -90q1 -48 -17 -90.5t-49.5 -74t-73.5 -50t-90 -18.5v0z" />
    <glyph glyph-name="uniE634" unicode="&#xe634;" horiz-adv-x="652" 
d="M383 579l-56 -74l56 -73v29l29.5 -1t35.5 0t11.5 7.5l5.5 6.5l42 77h-124v28v0zM521 593l-51 85l-79 -46l45 -78h72l6.5 9t8.5 13q2 5 0 11zM353 692l-21 -14l91 -8l37 79l-23 -10l-34 52l-4.5 4.5t-11.5 5.5h-53h-47l4 -5.5t6 -8.5q1 -2 28.5 -48.5l27.5 -46.5v0z
M258 798q-6 -6 -34 -50l-28 -44l81 -46l47 77l-38 63l-10.5 3t-17.5 -3v0zM182 490l5.5 -15.5t18.5 -15.5q14 -1 60 -0.5l46 0.5v90h-93l-37 -59v0zM266 586l-35 79l-90 -7l21 -16l-29 -49l-2 -8.5t2 -15.5q5 -8 26 -43l21 -35l66 106l20 -11v0zM646 608q0 68 -26 127.5
t-69.5 104t-102 70t-124.5 24.5q-67 0 -125 -26.5t-101 -71t-68 -105t-24 -128.5q0 -51 14.5 -97.5t40.5 -85.5l270 -463l266 472h-1q24 39 37 84t13 95v0zM327 385q-48 -1 -90 17t-74 49.5t-50.5 73.5t-18.5 90t18 90t49 74t73 50.5t90 18.5t90.5 -17.5t74 -49t50 -73.5
t18.5 -90q1 -48 -17 -90.5t-49.5 -74t-73.5 -50t-90 -18.5v0z" />
    <glyph glyph-name="uniE635" unicode="&#xe635;" horiz-adv-x="652" 
d="M256 742q-56 0 -92.5 -36t-36.5 -91q0 -27 10 -51t28 -41q18 -16 40.5 -24t52.5 -8q19 0 37 3t35 9q1 0 1 0.5v1.5l-7 27l-1 1h-1q-16 -6 -32.5 -9t-33.5 -3q-8 0 -18.5 1t-21.5 5q-25 9 -41 33.5t-16 53.5q0 36 25 67t72 31q43 0 63.5 -25t20.5 -54q0 -11 -3.5 -23
t-9.5 -21l-6.5 -6.5t-9.5 -4.5q-4 0 -6 2.5t-2 8.5q0 3 0.5 6.5t1.5 5.5l14 72v2h-1h-31l-1 -1l-2 -12q-8 11 -18 14t-17 3q-24 0 -44 -19.5t-20 -54.5q0 -29 16.5 -43t35.5 -14q13 0 24.5 5.5t19.5 15.5q3 -9 10.5 -13.5t17.5 -4.5q22 0 41.5 22.5t19.5 62.5q0 38 -27.5 72
t-86.5 34v0zM245 581q-8 0 -15.5 6.5t-7.5 19.5q0 16 9 27t22 11q12 0 17 -8.5t5 -17.5q0 -17 -9.5 -27.5t-20.5 -10.5v0zM490 729h-22q13 -23 20 -47.5t7 -49.5q0 -22 -5 -43t-15 -41h22q9 20 13.5 41t4.5 43q0 25 -6.5 49.5t-18.5 47.5v0zM417 729q17 -22 25.5 -46.5
t8.5 -50.5q0 -23 -6 -44t-18 -40h23q10 20 15.5 41t5.5 43q0 26 -7.5 50.5t-21.5 46.5h-25v0zM364 729q19 -21 29 -45.5t10 -51.5q0 -23 -7 -44t-20 -40h24q11 19 17 40t6 44q0 26 -8.5 50.5t-24.5 46.5h-26v0zM646 608q0 68 -26 127.5t-69.5 104t-102 70t-124.5 25.5
q-67 -1 -125 -27t-101 -71t-68 -105.5t-24 -128.5q0 -51 14.5 -97.5t40.5 -85.5l270 -463l266 472h-1q24 39 37 84.5t13 94.5v0zM327 385q-48 0 -90 17.5t-74 49t-50.5 73.5t-18.5 90t18 90.5t49 74t73 50t90 18.5q48 1 90.5 -17t74 -49.5t50 -73.5t18.5 -90q1 -48 -17 -90
t-49.5 -74t-73.5 -50.5t-90 -18.5v0z" />
    <glyph glyph-name="uniE636" unicode="&#xe636;" horiz-adv-x="652" 
d="M502 676q4 4 5.5 9t0.5 10l-8 -7q-3 -2 -6.5 -2t-6.5 3t-2.5 7t3.5 6l8 7q-5 2 -10.5 1t-9.5 -4q-6 -6 -6.5 -14t4.5 -14l0.5 -0.5l0.5 -0.5l-3 -53q-2 -1 -3.5 -1.5t-3.5 -2.5q-3 -3 -4.5 -7.5t-0.5 -9.5l7 7q3 2 6 1.5t6 -2.5q2 -3 1.5 -6t-2.5 -6l-7 -6q4 -1 8.5 -0.5
t8.5 3.5q6 5 6 12t-4 13q-1 0 -1 0.5v0.5l3 51q3 1 5.5 2t4.5 3v0zM356 641q7 13 13.5 25.5l6.5 12.5l33 -45h58l2 32h-48l-42 60l-2.5 2t-7.5 2h-113h-2h-1q-4 -1 -7 -2.5t-5 -5.5l-28 -51q-3 -6 -1.5 -11.5t6.5 -8.5q6 -3 11.5 -1.5t8.5 7.5l25 44h46q-10 -16 -19.5 -33.5
t-11.5 -22.5q0 -1 -2 -7.5l-2 -6.5l-14 -92l-62 1q-7 0 -21 -9.5t-13 -26.5h113q8 -1 13 6t6 14l9 75h1.5h1.5l74 -153h41l-81 169q4 6 7 12.5t7 13.5v0zM363 738q14 0 24 9.5t10 23.5t-10 24t-24 10q-13 0 -23 -10t-10 -24t10 -23.5t23 -9.5v0zM646 610q0 68 -26 127.5
t-69.5 104t-102 70t-124.5 25.5q-67 -1 -125 -27t-101 -71t-68 -105.5t-24 -128.5q0 -51 14.5 -97.5t40.5 -85.5l270 -463l266 472h-1q24 39 37 84.5t13 94.5v0zM327 387q-48 0 -90 17.5t-74 49t-50.5 73.5t-18.5 90t18 90.5t49 74t73 50t90 18.5q48 1 90.5 -17t74 -49.5
t50 -73.5t18.5 -90q1 -48 -17 -90t-49.5 -74t-73.5 -50.5t-90 -18.5v0z" />
    <glyph glyph-name="uniE637" unicode="&#xe637;" horiz-adv-x="652" 
d="M646 610q0 68 -26 127.5t-69.5 104t-102 70t-124.5 25.5q-67 -1 -125 -27t-101 -71t-68 -105.5t-24 -128.5q0 -51 14.5 -97.5t40.5 -85.5l270 -463l266 472h-1q24 39 37 84.5t13 94.5v0zM327 387q-48 0 -90 17.5t-74 49t-50.5 73.5t-18.5 90t18 90.5t49 74t73 50t90 18.5
q48 1 90.5 -17t74 -49.5t50 -73.5t18.5 -90q1 -48 -17 -90t-49.5 -74t-73.5 -50.5t-90 -18.5v0zM235 627q-37 0 -55 21t-18 52q0 32 18 53t55 21t55 -21t18 -53q0 -31 -18 -52t-55 -21v0zM261 484q-7 -9 -11.5 -11.5t-11.5 -2.5h-23q-9 0 -11 5.5t4 13.5l187 267
q6 9 10.5 11.5t12.5 2.5h22q9 0 11 -5.5t-3 -13.5l-187 -267v0zM235 734q-10 0 -15 -9t-5 -25q0 -15 5 -24.5t15 -9.5q11 0 15.5 9.5t4.5 24.5q0 16 -4.5 25t-15.5 9zM416 463q-36 0 -54.5 21.5t-18.5 52.5t18 52t55 21t55 -21t18 -52t-18 -52.5t-55 -21.5v0zM416 571
q-10 0 -15 -9t-5 -25t5 -25t15 -9q11 0 16 9t5 25t-5 25t-16 9v0z" />
    <glyph glyph-name="uniE638" unicode="&#xe638;" horiz-adv-x="652" 
d="M646 613q0 69 -26 128.5t-69.5 104t-102 70t-124.5 24.5q-67 0 -125 -26.5t-101 -71.5t-68 -105t-24 -128q0 -51 14.5 -97.5t40.5 -85.5l270 -463l266 472h-1q24 39 37 84t13 94v0zM327 391q-48 -1 -90 17t-74 49.5t-50.5 73.5t-18.5 90t18 90t49 74t73 50.5t90 18.5
t90.5 -18t74 -49t50 -73t18.5 -90q1 -48 -17 -90.5t-49.5 -74t-73.5 -50t-90 -18.5v0zM231 462q50 3 96 24.5t81 56.5t56.5 80.5t24.5 96.5q1 25 -28 43.5l-29 18.5q-4 2 -8.5 0.5t-7.5 -5.5l-53 -81q-2 -4 -2 -9t3 -8l32 -32q3 -3 3 -7.5t-4 -7.5l-80 -81q-3 -3 -7.5 -3.5
t-7.5 2.5l-30 30q-3 3 -8 3.5t-9 -2.5l-86 -63q-3 -3 -4 -7t1 -8l21 -21t46 -20v0z" />
    <glyph glyph-name="uniE639" unicode="&#xe639;" horiz-adv-x="652" 
d="M646 610q0 68 -26 127.5t-69.5 104t-102 70t-124.5 25.5q-67 -1 -125 -27t-101 -71t-68 -105.5t-24 -128.5q0 -51 14.5 -97.5t40.5 -85.5l270 -463l266 472h-1q24 39 37 84.5t13 94.5v0zM327 387q-48 0 -90 17.5t-74 49t-50.5 73.5t-18.5 90t18 90.5t49 74t73 50t90 18.5
q48 1 90.5 -17t74 -49.5t50 -73.5t18.5 -90q1 -48 -17 -90t-49.5 -74t-73.5 -50.5t-90 -18.5v0zM360 625q3 9 4 17.5t0 18.5l-20 8l-7 24l12 18q-4 8 -9.5 15t-12.5 13l-20 -8l-22 12l-4 22q-7 1 -14.5 2.5t-15.5 1.5q-1 0 -2.5 -0.5t-3.5 -0.5l-8 -20l-24 -7l-18 13
q-8 -5 -15 -10.5t-13 -12.5l8 -20l-12 -22l-21 -4q-3 -8 -4 -17t0 -18l20 -9l7 -24l-13 -18q5 -8 10.5 -15t12.5 -13l20 8l22 -12l4 -21q8 -3 17 -4t18 0l9 20l24 7l18 -12q8 4 15 9.5t13 12.5l-8 20l12 22l21 4v0zM254 634h-1.5h-1.5q-8 0 -14 5t-7 13q-1 9 4 16t14 8
q8 1 15 -4t9 -14q1 -8 -4 -15t-14 -9v0zM490 565l14 17q-2 8 -6 14.5t-9 11.5l-22 -3l-17 9l-7 22q-4 1 -8 1h-8h-7.5t-7.5 -1l-8 -21l-16 -10l-23 4q-5 -6 -8.5 -12.5t-6.5 -13.5l14 -18v-19l-14 -17q2 -8 6 -14.5t9 -12.5l22 4l17 -10l8 -21q7 -1 14.5 -1.5t15.5 1.5l8 21
l16 10l23 -4q5 6 9 12.5t6 13.5l-14 18v19v0zM429 543h-1.5h-0.5q-4 0 -7.5 3t-4.5 8q-1 4 2 8.5t8 4.5q5 1 9 -2t5 -8t-2 -9t-8 -5v0z" />
    <glyph glyph-name="uniE63A" unicode="&#xe63a;" horiz-adv-x="652" 
d="M646 610q0 68 -26 127.5t-69.5 104t-102 70t-124.5 25.5q-67 -1 -125 -27t-101 -71t-68 -105.5t-24 -128.5q0 -51 14.5 -97.5t40.5 -85.5l270 -463l266 472h-1q24 39 37 84.5t13 94.5v0zM327 387q-48 0 -90 17.5t-74 49t-50.5 73.5t-18.5 90t18 90.5t49 74t73 50t90 18.5
q48 1 90.5 -17t74 -49.5t50 -73.5t18.5 -90q1 -48 -17 -90t-49.5 -74t-73.5 -50.5t-90 -18.5v0zM366 565q-9 0 -15 -6t-6 -15q0 -8 6 -14.5t15 -6.5t15 6.5t6 14.5q0 9 -6 15t-15 6zM187 565q-9 0 -15 -6t-6 -15q0 -8 6 -14.5t15 -6.5q8 0 14.5 6.5t6.5 14.5q0 9 -6.5 15
t-14.5 6zM428 607v-19l102 10zM428 652v-19l72 10zM427 696v-19l48 10zM417 574h-3q0 1 0.5 2.5t0.5 2.5l-1 119q0 6 -4.5 11t-11.5 5v0l-151 -1q-7 0 -11.5 -4.5t-4.5 -11.5v-33q-1 0 -2 0.5t-3 0.5q-47 6 -65.5 -19.5t-20.5 -33.5q-2 -7 -1 -20.5t1 -19.5q-3 0 -5.5 -3
t-2.5 -7t3 -7t7 -3h11q2 12 11 20.5t22 8.5t22.5 -8.5t11.5 -20.5h113q1 13 10.5 21.5t22.5 8.5t22.5 -8.5t11.5 -20.5h17q4 0 7 3t3 7q0 5 -3 8t-7 3v0zM160 610v2t1 7t13 19.5t38 10.5q4 0 5 -2l1 -2v-34l-58 -1v0z" />
    <glyph glyph-name="uniE63B" unicode="&#xe63b;" 
d="M524 781q69 0 129.5 -26.5t106 -71.5t71.5 -105.5t26 -129.5t-26 -129.5t-71.5 -105.5t-106 -71.5t-129.5 -26.5t-129.5 26.5t-105.5 71.5t-71.5 105.5t-26.5 129.5t26.5 129.5t71.5 105.5t105.5 71.5t129.5 26.5v0zM524 832q-79 0 -149 -30t-122 -82.5t-82.5 -122
t-30.5 -149.5t30.5 -149.5t82.5 -122t122 -82.5t149 -30q80 0 150 30t122 82.5t82 122t30 149.5t-30 149.5t-82 122t-122 82.5t-150 30v0zM524 496q-21 0 -36 -15t-15 -36q0 -22 15 -37t36 -15t36 15t15 37q0 21 -15 36t-36 15v0zM678 496q-21 0 -36 -15t-15 -36
q0 -22 15 -37t36 -15t36 15t15 37q0 21 -15 36t-36 15v0zM371 496q-22 0 -37 -15t-15 -36q0 -22 15 -37t37 -15q21 0 36 15t15 37q0 21 -15 36t-36 15v0z" />
    <glyph glyph-name="uniE63C" unicode="&#xe63c;" 
d="M1024 448q0 -106 -40 -199t-109.5 -162.5t-162.5 -109.5t-199 -40t-199 40t-162.5 109.5t-109.5 162.5t-40 199t40 199t109.5 162.5t162.5 109.5t199 40t199 -40t162.5 -109.5t109.5 -162.5t40 -199v0zM670 452h-142v207q0 24 -17 41t-41 17q-25 0 -42 -17t-17 -41v-265
v-0.5v-1.5q0 -24 17.5 -41.5t41.5 -17.5h200q25 0 42 17.5t17 42.5q0 24 -17.5 41.5t-41.5 17.5v0z" />
    <glyph glyph-name="uniE63D" unicode="&#xe63d;" 
d="M1023 448q0 -106 -40 -199t-109.5 -162.5t-162.5 -109.5t-199 -40t-199 40t-162.5 109.5t-109.5 162.5t-40 199t40 199t109.5 162.5t162.5 109.5t199 40t199 -40t162.5 -109.5t109.5 -162.5t40 -199zM791 652q-18 18 -42.5 18t-41.5 -18l-293 -292l-98 98
q-17 17 -41.5 17t-41.5 -17t-17 -41.5t17 -41.5l139 -139q0 -1 0.5 -1t0.5 -1q17 -17 41.5 -17t42.5 17l334 334q17 18 17 42.5t-17 41.5v0z" />
    <glyph glyph-name="uniE63E" unicode="&#xe63e;" horiz-adv-x="1296" 
d="M636 237q0 -62 -24 -117t-64.5 -95.5t-95.5 -64.5t-117 -24t-117 24t-95.5 64.5t-64 95.5t-23.5 117t23.5 117t64 95.5t95.5 64t117 23.5t117 -23.5t95.5 -64t64.5 -95.5t24 -117zM716 747q-21 0 -33.5 -15t-12.5 -37v-282q0 -28 29 -45.5l29 -17.5l179 -90
q18 -11 42 -5.5t34 24.5q11 18 -8.5 38.5t-37.5 31.5l-174 79v267q0 22 -13 37t-34 15v0zM785 951q-86 0 -164 -29t-141 -79t-107 -119t-63 -150q6 0 12 0.5t13 0.5q23 0 45 -3t44 -9q16 59 50.5 109.5t82 87.5t106 57.5t122.5 20.5q78 0 146.5 -29.5t119.5 -80.5
t80.5 -119.5t29.5 -146.5q0 -77 -29.5 -145.5t-80.5 -119.5t-119.5 -80.5t-146.5 -29.5q-36 0 -70.5 6.5t-65.5 19.5q-11 -27 -26 -51.5t-34 -46.5q45 -20 94.5 -30.5t101.5 -10.5q101 0 190 38.5t155.5 104.5t105 155t38.5 190t-38.5 190t-105 155.5t-155.5 105t-190 38.5
v0zM214 175q0 3 1 5t3 5q1 2 3 4.5t4 4.5l5 5t5 4q2 1 4.5 3t4.5 3q8 6 15 11.5t13 10.5t11.5 10t10.5 11q4 6 7.5 12t5.5 13q3 6 4 13.5t1 16.5t-1.5 16t-4.5 14q-3 6 -7.5 11t-9.5 9q-6 4 -12.5 7t-13.5 4q-7 2 -15 3t-16 1q-7 0 -13 -0.5t-12 -2.5q-6 -1 -11.5 -2.5
t-10.5 -4.5q-5 -2 -8.5 -4.5t-6.5 -5.5t-4.5 -6.5t-1.5 -7.5q0 -3 1 -6t3 -6q1 -4 3 -6t3 -4q2 -1 3 -2t2 -1q2 1 3.5 1.5t3.5 1.5q4 3 9 5t11 4q5 2 11.5 3t13.5 1q9 0 15 -2t10 -6t5.5 -9t1.5 -11q0 -7 -1.5 -13.5t-5.5 -11.5t-9 -10.5t-10 -9.5q-6 -5 -12.5 -10
t-12.5 -10q-7 -4 -13 -9.5t-12 -11.5t-10.5 -12.5t-8.5 -14.5q-4 -7 -6 -16t-2 -19q0 -5 0.5 -8.5t2.5 -5.5q1 -3 4 -4t7 -1h126q5 0 8 1t4 2q1 2 2 5.5t1 7.5v8q0 5 -1 8.5t-2 4.5q-1 2 -4 3t-8 1h-86v0zM434 182v-34q0 -5 1 -8t3 -4q1 -1 4.5 -1.5t8.5 -0.5h12
q4 0 7.5 0.5t5.5 1.5t2.5 4t0.5 8v34h21q6 0 9 1t4 3q1 1 1.5 4.5t0.5 7.5v6q0 5 -0.5 8.5t-1.5 4.5q-1 2 -4 3t-9 1h-21v134q0 5 -0.5 8t-2.5 4t-5.5 1.5t-7.5 0.5h-23h-4h-4q-1 -1 -2.5 -1t-2.5 -1l-3 -1.5t-2 -1.5t-2 -3t-2 -3l-88 -130q-2 -2 -3 -4t-1 -4
q-1 -2 -1.5 -4.5t-0.5 -5.5v-12q0 -5 1 -8.5t2 -4.5q1 -2 4 -2.5t8 -0.5h95v0zM434 221h-65l65 96v-96z" />
    <glyph glyph-name="uniE63F" unicode="&#xe63f;" 
d="M512 922q-100 0 -188.5 -38t-154.5 -103.5t-104 -154t-38 -188.5q0 -101 38 -189t104 -154t154.5 -104t188.5 -38t188.5 38t154.5 104t104 154t38 189q0 100 -38 188.5t-104 154t-154.5 103.5t-188.5 38zM596 205q-3 0 -6 0.5t-7 1.5q-6 1 -12 4t-10 8q-24 21 -19.5 64.5
t19 88t29 80.5t10.5 41q-3 -1 -6.5 -8l-8.5 -17q-13 -27 -33.5 -71.5t-45 -87t-51 -73.5t-51.5 -31q-8 0 -18 3.5t-19 12.5q-28 29 -17.5 80t15.5 99q-3 -3 -18 -34t-37.5 -66.5t-50 -65t-55.5 -29.5h-2h-2q-49 5 -50.5 58.5t13.5 95.5h107q-24 -68 -2 -53.5t46 57.5
q46 94 62.5 134.5t67.5 182.5h117q-26 -80 -47 -156t-32 -159q0 -3 1.5 -5.5t5.5 -0.5q9 1 34.5 48.5t53.5 105.5t51.5 108.5t27.5 58.5h118l-19 -54.5t-40.5 -122.5t-37 -129t-7.5 -73q7 -14 17 3t20 28l18 -19q-26 -28 -57 -68t-72 -40v0zM770 208q-15 0 -25.5 10.5
t-10.5 25.5q0 14 10.5 24.5t25.5 10.5q14 0 24.5 -10.5t10.5 -24.5q0 -15 -10.5 -25.5t-24.5 -10.5z" />
    <glyph glyph-name="uniE640" unicode="&#xe640;" horiz-adv-x="1072" 
d="M553 898q-94 0 -176.5 -35.5t-144 -97t-97 -144t-35.5 -176.5t35.5 -176.5t97 -144t144 -97t176.5 -35.5t176.5 35.5t144 97t97 144t35.5 176.5t-35.5 176.5t-97 144t-144 97t-176.5 35.5v0zM553 57q-80 0 -151 30.5t-123.5 83t-83 123t-30.5 151.5q0 80 30.5 151
t83 123.5t123.5 83t151 30.5q81 0 151.5 -30.5t123 -83t83 -123.5t30.5 -151q0 -81 -30.5 -151.5t-83 -123t-123 -83t-151.5 -30.5zM788 287q0 -12 -8.5 -20t-20.5 -8q-11 0 -19.5 8t-8.5 20t8.5 20t19.5 8q12 0 20.5 -8t8.5 -20v0zM437 271q-22 24 -13.5 64.5t11.5 79.5
q-2 -3 -14 -27.5t-30 -53t-40 -52t-44 -23.5h-2h-1q-40 4 -41 46.5t11 76.5h86q-20 -55 -2 -43.5t36 46.5q37 75 50.5 107.5t54.5 146.5h94q-21 -64 -38 -125t-26 -127q0 -3 1.5 -5t3.5 0q8 1 28.5 39t43 84.5t41 87t22.5 46.5h94l-15.5 -43.5t-32.5 -98t-29.5 -103.5
t-6.5 -58q7 -12 15 2t15 22l15 -15q-21 -23 -45.5 -54.5t-57.5 -31.5h-5.5t-5.5 1q-5 1 -9.5 3.5t-8.5 6.5q-19 16 -15 51t15.5 71t23 64.5t7.5 32.5q-2 0 -4.5 -6t-6.5 -14q-11 -22 -27.5 -57.5t-36 -69.5t-40.5 -58.5t-41 -24.5q-6 0 -14.5 2.5t-15.5 9.5v0z" />
    <glyph glyph-name="uniE641" unicode="&#xe641;" 
d="M763 413q-1 2 1 11.5t9 21.5q6 12 15.5 19.5t14.5 3.5q5 -3 -5.5 -19.5t-34.5 -36.5v0zM671 460q-2 -2 -10.5 -17t-7.5 -29q1 -12 5 -11.5t7 2.5q9 5 15.5 21.5t7.5 28.5q0 10 -6 11t-11 -6v0zM511 530q-21 -5 -47.5 -38t-22.5 -36q13 3 46.5 39t23.5 35zM1005 446
q0 -40 -15.5 -76t-42.5 -63t-62.5 -42.5t-76.5 -15.5h-590q-41 0 -76.5 15.5t-62.5 42.5t-42.5 63t-15.5 76q0 41 15.5 77t42.5 63q27 26 62.5 41.5t76.5 16.5h590q41 -1 76.5 -16.5t62.5 -41.5q27 -27 42.5 -63t15.5 -77v0zM343 417l-8 8q-4 -4 -8.5 -11.5t-7.5 -1.5
q-4 5 3 31.5t16.5 56.5t17.5 54l8 24h-51q-4 -7 -34.5 -73.5t-39.5 -67.5q-1 -1 -1.5 0t-0.5 3q4 36 13.5 69t20.5 69h-51q-22 -63 -29.5 -80.5t-27.5 -58.5q-10 -19 -20 -25.5t1 23.5h-47q-7 -18 -6 -41.5t22 -25.5h1.5h0.5q24 0 46 41t24 44q-2 -21 -6.5 -43.5t7.5 -34.5
q4 -4 8.5 -5.5t8.5 -1.5q21 0 44 45.5t35 69.5l3.5 7t2.5 3q4 -4 -17 -52.5t0 -66.5q2 -2 4.5 -3.5t5.5 -2.5q20 -4 35 15t27 32v0zM373 384q0 5 -4.5 9t-9.5 4q-6 0 -10 -4t-4 -9q0 -6 4 -10t10 -4q5 0 9.5 4t4.5 10zM477 456q-1 -1 -15 -7.5l-14 -6.5l1 -19.5t-10 -23.5
q-4 0 -6.5 10t1.5 27q54 29 84.5 70t21.5 47q-16 8 -68.5 -16t-74.5 -99q-3 -1 -11.5 -3l-8.5 -2l-8 -20l26 8l4 -25t37 -26q26 1 38 30.5t3 55.5v0zM607 391q0 2 -1.5 7l-1.5 5l-5.5 -4.5t-6.5 -3.5q-2 1 13 46l15 45h-34q-4 -17 -21.5 -50t-32.5 -35q-5 0 9.5 35.5
t15.5 41.5q2 7 -2.5 10.5t-11.5 1.5t-27.5 -15.5l-20.5 -13.5v-14l9.5 6t10.5 4q0 -5 -11.5 -34t-12.5 -35q0 -3 2.5 -10.5t11.5 -7.5q3 0 6.5 0.5t7.5 2.5q14 8 26 19l12 11l-2 -7.5t-1 -14.5q2 -7 8.5 -10t14.5 0t17.5 9.5t12.5 10.5v0zM681 323l52 163h-32l-1.5 -4
t-2.5 -5q-3 5 -13 10t-30 -8q-21 -13 -30 -34.5t-6 -46.5q3 -20 18 -26t35 19q-3 -4 -12.5 -36l-9.5 -32h32v0zM816 402l-7 12l-18 -13.5t-26 -1.5q46 24 58.5 50.5t-1.5 34.5q-21 12 -62 -9.5t-34 -79.5q-3 -2 -7.5 -4.5l-4.5 -2.5l6 -15l5.5 3.5t7.5 4.5q7 -5 12 -8t16 -3
q22 -1 38.5 15.5l16.5 16.5v0zM939 469q0 18 -8.5 19t-10.5 0q-17 -5 -29.5 -20l-12.5 -15l10 -10l5.5 9t12.5 9q6 0 0 -18t-8 -21q-9 -20 -21.5 -25.5t-16.5 11.5q-6 27 18.5 52l24.5 25h-34l-26.5 -29t-11.5 -67q2 -3 8.5 -11t19.5 -8q6 0 12.5 2t15.5 7q32 17 42 49.5
t10 40.5v0z" />
    <glyph glyph-name="uniE642" unicode="&#xe642;" 
d="M495 149q0 6 -5 9t-14 3h-19q-3 0 -4 -0.5t-2 -4.5l-7 -45q0 -3 1.5 -4t3.5 -1h21q11 0 17.5 5t6.5 13q0 3 -2 6.5t-6 4.5q4 2 6.5 5.5t2.5 8.5v0zM470 119h-9l1 10h10q4 0 5 -1.5t1 -2.5q0 -2 -2 -4t-6 -2v0zM473 139h-9l1 10h10q2 0 3.5 -1.5t1.5 -2.5q0 -2 -2 -4
t-5 -2v0zM870 161h-7q-2 0 -3.5 -1t-1.5 -4l-2 -15h-20l2 15q1 3 0 4t-4 1h-6q-2 0 -3.5 -1t-1.5 -4l-7 -45q0 -3 1 -4t3 -1h6q3 0 4 1t2 4l2 17h20l-3 -17q0 -3 1 -4t4 -1h6q2 0 3.5 1t1.5 4l7 45q0 3 -1 4t-3 1v0zM911 162q-14 0 -23.5 -9t-9.5 -23q0 -12 7 -18.5t18 -6.5
q15 0 24 9t9 24q0 11 -6.5 17.5t-18.5 6.5v0zM905 119q-5 0 -8 3t-3 9q0 8 4.5 13t10.5 5q5 0 8 -3t3 -9q0 -8 -4 -13t-11 -5v0zM810 149q0 6 -5 9t-14 3h-19q-3 0 -4 -0.5t-2 -4.5l-7 -45q0 -3 1.5 -4t4.5 -1h20q11 0 17.5 5t6.5 13q0 3 -1.5 6.5t-6.5 4.5q4 2 6.5 5.5
t2.5 8.5v0zM786 119h-10l2 10h10q3 0 4 -1.5t1 -2.5q0 -2 -1.5 -4t-5.5 -2v0zM788 139h-9l1 10h10q3 0 4 -1.5t1 -2.5q0 -2 -2 -4t-5 -2v0zM750 161h-6q-1 0 -2 -1l-2 -2q-3 2 -6.5 3t-6.5 1q-14 0 -22 -11.5t-8 -25.5q0 -8 3.5 -14t13.5 -6q6 0 11 2t8 7v-4q0 -3 1.5 -3.5
t3.5 -0.5h2q3 0 4.5 1t2.5 4l7 45q0 2 -1 3.5t-3 1.5v0zM735 133q-1 -6 -5.5 -10.5t-9.5 -4.5q-4 0 -5.5 2.5t-1.5 6.5q0 5 4 14t11 9q2 0 4.5 -1.5t4.5 -4.5l-2 -11v0zM671 162q-5 0 -9.5 -1t-8.5 -5q-2 3 -4 4.5t-5 1.5q-2 0 -4 -1t-3 -2t-1 -2v-1q2 -2 2 -5.5v-5.5
l-11 -62q0 -3 1 -4t4 -1h5q3 0 4.5 0.5t1.5 4.5l4 24q3 -1 6 -1.5t6 -0.5q12 0 22 9t10 27q0 10 -5.5 15.5t-14.5 5.5v0zM657 119h-4t-4 1l4 24q3 2 6.5 3.5t6.5 1.5q5 0 6.5 -3.5t1.5 -7.5q0 -9 -5 -14t-12 -5v0zM597 166q4 0 7 3t3 7q0 3 -2 5t-6 2t-6.5 -2.5t-2.5 -6.5
t2 -6t5 -2v0zM141 161h-6q-2 0 -3.5 -1t-1.5 -4l-2 -15h-20l2 15q1 3 0 4t-4 1h-6q-3 0 -4 -1t-1 -4l-7 -45q0 -3 1 -4t3 -1h6q3 0 4 1t2 4l2 17h20l-3 -17q0 -3 1 -4t3 -1h7q2 0 3.5 1t1.5 4l7 45q0 3 -1 4t-4 1v0zM204 161h-6q-1 0 -2 -1l-2 -2q-2 2 -6 3t-7 1
q-14 0 -22 -11.5t-8 -25.5q0 -8 3.5 -14t13.5 -6q6 0 11 2t8 7l1 -4q0 -3 1 -3.5t3 -0.5h2q4 0 5 1t2 4l7 45q0 2 -1 3.5t-3 1.5v0zM189 133q-1 -6 -5.5 -10.5t-9.5 -4.5q-3 0 -5 2.5t-2 6.5q0 7 4 15t11 8q2 0 5 -1.5t4 -4.5l-2 -11v0zM574 166q4 0 6.5 3t2.5 7q0 3 -2 5
t-5 2q-4 0 -6.5 -2.5t-2.5 -6.5t2 -6t5 -2v0zM276 161h-6q-1 0 -2.5 -0.5t-3.5 -3.5l-18 -33l-7 33q-1 2 -2.5 3t-3.5 1h-6q-3 0 -4 -1t-2 -4l-8 -45q0 -3 1 -4t3 -1h4q3 0 4.5 1t1.5 4l3 18v8l8 -27q0 -1 1 -2t3 -1h5q2 0 3 1l2 2l13 27l-1 -8l-2 -18q0 -3 1 -4t3 -1h5
q3 0 4.5 1t1.5 4l4 45q0 3 -1 4t-4 1v0zM585 162q-14 0 -23 -9t-9 -23t8 -19.5t17 -5.5q6 0 11 1.5t9 3.5q2 1 2.5 2t0.5 3l-1 4q-1 2 -2 2.5t-3 -0.5q-3 -1 -7 -2t-8 -1q-6 0 -8.5 2.5t-3.5 8.5h31q2 0 3.5 0.5t2.5 2.5t1.5 5.5t0.5 6.5q0 8 -6 13t-16 5v0zM593 140h-23
q2 5 5.5 7.5t8.5 2.5q4 0 7 -3t2 -7v0zM533 162q-15 0 -23.5 -9t-8.5 -24q0 -11 6 -17.5t17 -6.5q6 0 11.5 1.5t10.5 5.5q1 1 1 2.5v2.5l-2 4l-1.5 1.5t-2.5 -0.5q-4 -2 -7 -2.5t-6 -0.5q-6 0 -8.5 4t-2.5 9q0 8 4.5 12.5t10.5 4.5q3 0 6.5 -1.5t5.5 -4.5q1 -1 2 -0.5l1 0.5
q2 2 2.5 3.5t0.5 3.5q0 6 -5 9t-12 3v0zM401 162q-15 0 -24 -9t-9 -23t8 -19.5t18 -5.5q5 0 10.5 1.5t9.5 3.5l2 2t0 3l-1 4q0 2 -1.5 2.5t-2.5 -0.5q-3 -1 -7 -2t-8 -1q-6 0 -9 2.5t-3 8.5h31q1 0 2.5 0.5t2.5 2.5t2 5.5t1 6.5q0 8 -6 13t-16 5v0zM408 140h-22q1 5 4.5 7.5
t8.5 2.5t7.5 -3t1.5 -7v0zM358 161h-6q-2 0 -3.5 -1t-1.5 -4l-2 -15h-20l2 15q0 3 -1 4t-3 1h-6q-3 0 -4 -1t-2 -4l-6 -45q-1 -3 0 -4t4 -1h6q2 0 3.5 1t2.5 4l2 17h20l-3 -17q0 -3 1 -4t3 -1h7q2 0 3.5 1t1.5 4l7 45q0 3 -1 4t-4 1v0zM803 469q-5 4 -14.5 -3.5t-15.5 -19.5
q-7 -12 -9 -21.5t-1 -11.5q24 20 34.5 36.5t5.5 19.5v0zM947 307q27 27 42.5 63t15.5 76q0 41 -15.5 77t-42.5 63q-27 26 -62.5 41.5t-76.5 16.5h-590q-41 -1 -76.5 -16.5t-62.5 -41.5q-27 -27 -42.5 -63t-15.5 -77q0 -40 15.5 -76t42.5 -63t62.5 -42.5t76.5 -15.5h590
q41 0 76.5 15.5t62.5 42.5v0zM869 485h34l-24.5 -25t-18.5 -52q4 -17 16.5 -11.5t21.5 25.5q2 3 8 21t0 18q-7 0 -12.5 -9l-5.5 -9l-10 10l12.5 15t29.5 20q2 1 10.5 0t8.5 -19q0 -8 -10 -40.5t-42 -49.5q-9 -5 -15.5 -7t-12.5 -2q-13 0 -19.5 8t-8.5 12q-15 37 11.5 66
l26.5 29v0zM822 484q14 -8 1.5 -34.5t-58.5 -50.5q8 -12 26 1.5l18 13.5l7 -12l-16.5 -16.5t-38.5 -15.5q-11 0 -16 3t-12 8q-2 -1 -7.5 -4.5l-5.5 -3.5l-6 15l4.5 2.5t7.5 4.5q-7 58 34 79.5t62 9.5v0zM654 479q20 13 30 8t13 -10q1 1 2.5 5l1.5 4h32l-52 -163h-32l9.5 32
t12.5 36q-20 -25 -35 -19t-18 26q-3 25 6 46.5t30 34.5v0zM557 478q-1 -6 -15.5 -41.5t-9.5 -35.5q15 2 32.5 35t21.5 50h34l-15 -45t-13 -46q1 -1 6.5 3.5l5.5 4.5l1.5 -5t1.5 -7q-3 -4 -12.5 -10.5t-17.5 -9.5t-14.5 0t-8.5 10q-1 7 1 14.5l2 7.5l-12 -11t-26 -19
q-4 -2 -7.5 -2.5t-6.5 -0.5q-9 0 -11.5 7.5t-2.5 10.5q1 6 12.5 35t11.5 34q-1 2 -10.5 -4l-9.5 -6v14l20.5 13.5t27.5 15.5t11.5 -1.5t2.5 -10.5v0zM377 433l8.5 2t11.5 3q22 75 74.5 99t68.5 16q9 -6 -21.5 -47t-84.5 -70q-4 -17 -1.5 -27t6.5 -10q11 4 10 23.5l-1 19.5
l14 6.5t15 7.5q9 -26 -3 -55.5t-38 -30.5q-33 1 -37 26l-4 25l-26 -8l8 20v0zM373 384q0 -6 -4.5 -10t-9.5 -4q-6 0 -10 4t-4 10q0 5 4 9t10 4q5 0 9.5 -4t4.5 -9zM186 377q-12 12 -7.5 34.5t6.5 43.5q-2 -3 -24 -44t-46 -41h-0.5h-1.5q-21 2 -22 25.5t6 41.5h47
q-11 -30 -1 -23.5t20 25.5q20 41 27.5 58.5t29.5 80.5h51q-11 -36 -20.5 -69t-13.5 -69q0 -2 0.5 -3t1.5 0q9 1 39.5 67.5t34.5 73.5h51l-8 -24t-17.5 -54t-16.5 -56.5t-3 -31.5q3 -6 7.5 1.5t8.5 11.5l8 -8q-12 -13 -27 -32t-35 -15q-3 1 -5.5 2.5t-4.5 3.5q-21 18 0 66.5
t17 52.5q-1 0 -2.5 -3l-3.5 -7q-12 -24 -35 -69.5t-44 -45.5q-4 0 -8.5 1.5t-8.5 5.5v0zM511 530q-21 -5 -47.5 -38t-22.5 -36q13 3 46.5 39t23.5 35zM665 405q9 5 15.5 21.5t7.5 28.5q0 10 -6 11t-11 -6q-2 -2 -10.5 -17t-7.5 -29q1 -12 5 -11.5t7 2.5v0z" />
    <glyph glyph-name="uniE643" unicode="&#xe643;" 
d="M501 946q-104 0 -195 -39t-159 -107t-107.5 -159.5t-39.5 -194.5q0 -104 39.5 -195t107.5 -159t159 -107.5t195 -39.5q103 0 194.5 39.5t159.5 107.5t107 159t39 195q0 103 -39 194.5t-107 159.5t-159.5 107t-194.5 39zM501 17q-89 0 -167.5 33.5t-136.5 91.5
t-91.5 136.5t-33.5 167.5t33.5 167t91.5 136t136.5 92t167.5 34t167 -34t136 -92t92 -136t34 -167t-34 -167.5t-92 -136.5t-136 -91.5t-167 -33.5v0zM760 271q0 -13 -9 -22t-22 -9t-22.5 9t-9.5 22t9.5 22.5t22.5 9.5t22 -9.5t9 -22.5zM372 254q8 -8 17 -11t16 -3
q22 0 45.5 27.5t45 65t40 77t29.5 62.5l8 16t5 6q4 -4 -8.5 -35.5t-25.5 -71t-17.5 -78t17.5 -57.5q4 -4 9 -6.5t11 -4.5q3 0 5.5 -0.5t5.5 -0.5q37 0 64 35t50 61l-16 16q-8 -9 -17 -24t-16 -3q-7 11 6.5 64.5t32.5 114t36 108.5l17 48h-104q-4 -7 -24.5 -51.5t-45 -96
t-47.5 -93.5t-31 -43q-3 -1 -4.5 1t-1.5 4q10 74 28.5 141t41.5 138h-104q-45 -125 -59.5 -161t-55.5 -119q-20 -39 -40 -51.5t2 47.5h-95q-14 -37 -12.5 -84.5t45.5 -51.5h1.5h1.5q25 0 49 26t44 57.5t33.5 59t16.5 29.5q-5 -42 -14 -87t15 -71v0z" />
    <glyph glyph-name="uniE644" unicode="&#xe644;" 
d="M978 638l-22 -20q-8 -6 -18 -5.5t-17 8.5q-7 7 -6.5 17.5t8.5 17.5l22 19q-13 5 -28 3t-26 -13q-17 -14 -18.5 -36t13.5 -39l1.5 -1.5l1.5 -1.5l-10 -144q-4 -1 -8.5 -3.5t-8.5 -5.5q-10 -9 -13.5 -21.5t-0.5 -24.5l19 17q7 6 16 5.5t15 -7.5t5.5 -16t-7.5 -15l-20 -17
q12 -5 25 -2.5t23 11.5q15 12 16 31.5t-12 33.5q0 1 -1 2l-2 2l9 140q8 1 14.5 4t12.5 8q12 10 16 24.5t1 28.5v0zM565 489q20 36 37 70.5l17 34.5l90 -122h158l6 86h-131l-114 163l-7.5 5t-20.5 5h-306h-5h-4q-9 -1 -17.5 -6.5t-12.5 -13.5l-78 -141q-8 -14 -3.5 -29.5
t19.5 -23.5q14 -8 29.5 -3.5t23.5 18.5l66 121h125q-25 -45 -51 -92.5t-31 -60.5q-2 -2 -6.5 -19l-4.5 -17l-38 -250l-168 1q-21 1 -58 -24.5t-36 -71.5l307 -2q21 0 35 19t17 36l25 205h4h4l200 -416h112l-220 458q11 15 19.5 33.5t17.5 36.5v0zM586 752q38 0 64.5 27
t26.5 64q0 38 -26.5 65t-64.5 27t-65 -27t-27 -65q0 -37 27 -64t65 -27v0z" />
    <glyph glyph-name="uniE645" unicode="&#xe645;" 
d="M173 510v-1h0.5t0.5 1q4 -1 8 -0.5t8 0.5h4q4 0 10 -1t13 -2h1.5h1.5t2.5 -0.5t3.5 -0.5q3 -1 5.5 -1.5t4.5 -1.5h1h1q4 -1 8 -2.5t8 -2.5q16 -6 29.5 -15t23.5 -17l44 -45l103 -103l40 -40q6 -8 12.5 -17.5t10.5 -21.5q3 -9 3 -21.5t-1 -21.5v-23v-8v0q0 -15 2.5 -30.5
t9.5 -31.5q20 -45 66 -80.5t99 -42.5l-70 160q8 19 23 33.5t36 23.5q20 9 41 10t40 -5l71 -161q30 44 35.5 102t-14.5 103q-18 42 -54 63t-79 21l1 1h-1t-3 -1h-4q-6 1 -11.5 1h-10.5q-11 1 -24 3.5t-27 7.5q-17 6 -30 15t-23 17l-44 45l-95 95l-49 48q-6 8 -12 18t-10 22
q-4 9 -3.5 21t0.5 21q1 16 1 24v8v-1q0 15 -2.5 30.5t-9.5 30.5q-20 46 -66.5 81t-98.5 43l70 -161q-9 -18 -24 -33t-35 -23q-20 -9 -41 -10t-41 5l-70 161q-30 -44 -35.5 -102t14.5 -103q18 -43 53.5 -63.5t78.5 -20.5v0zM579 453l7 -8q36 39 73 79t75 80l119 -119l155 156
l-236 238l-29 -2.5t-72 4.5q-38 6 -64.5 15l-26.5 9l-74 -73l147 -147q-41 -38 -81 -74.5t-79 -72.5zM103 179q-25 -25 -25 -60.5t25 -60.5t60.5 -25t60.5 25q3 3 19 20t43 45.5t62.5 66.5t78.5 84l-10 10l-97 96q-46 -43 -84.5 -78.5t-66.5 -61.5t-45.5 -42t-20.5 -19v0z
" />
    <glyph glyph-name="uniE646" unicode="&#xe646;" horiz-adv-x="652" 
d="M190 663q-11 11 -26.5 10.5t-26.5 -11.5t-10.5 -26.5t11.5 -26.5q11 -10 26.5 -10t26.5 11t10.5 26.5t-11.5 26.5v0zM502 539l-27 99q-2 9 -9 13t-16 2l-59 -16l28 74l-149 58l-86 -225l60 -24q1 -6 4.5 -11t7.5 -9q6 -6 14 -9.5t17 -3.5h1.5h1.5l1 -4q2 -8 9.5 -12.5
t15.5 -2.5l171 46q8 2 12.5 9.5t2.5 15.5v0zM312 523q-1 -3 -2.5 -5.5t-3.5 -4.5q-3 -3 -7 -5t-8 -3l-1 1q-5 -1 -11 1t-10 6q-5 4 -7 10t-1 12v0q0 4 2 8t5 8q1 1 2 1.5t2 1.5v0q8 5 17.5 4.5t16.5 -7.5q5 -6 7 -13.5t-1 -14.5v0v0zM298 575q-2 10 0.5 20.5t9.5 18.5
q1 0 1.5 0.5t0.5 1.5l-31 -9q-8 -2 -12 -9t-2 -16l2 -10q-3 -1 -6 -3.5t-6 -5.5q-4 -4 -7 -9.5t-5 -11.5l-33 13l72 188l111 -44l-26 -68l-21 -6q6 -1 11 -3.5t9 -6.5q12 -12 12 -29t-11 -29q-8 -7 -17.5 -10t-19.5 -1q-2 5 -5 9.5t-7 8.5t-9 7t-11 4v0zM318 500h1v1
q6 6 9 13t4 14l150 42l6 -24l-170 -46v0zM646 610q0 68 -26 127.5t-69.5 104t-102 70t-124.5 25.5q-67 -1 -125 -27t-101 -71t-68 -105.5t-24 -128.5q0 -51 14.5 -97.5t40.5 -85.5l270 -463l266 472h-1q24 39 37 84.5t13 94.5v0zM327 387q-48 0 -90 17.5t-74 49t-50.5 73.5
t-18.5 90t18 90.5t49 74t73 50t90 18.5q48 1 90.5 -17t74 -49.5t50 -73.5t18.5 -90q1 -48 -17 -90t-49.5 -74t-73.5 -50.5t-90 -18.5v0z" />
    <glyph glyph-name="uniE647" unicode="&#xe647;" 
d="M413 547h562v129h-562v139l-406 -203l406 -204v139zM1006 250l-406 203v-139h-561v-129h561v-139z" />
    <glyph glyph-name="uniE648" unicode="&#xe648;" 
d="M838 611q0 69 -26 129t-70 105t-103 70.5t-126 24.5q-66 0 -124.5 -26.5t-102 -72t-68.5 -106t-25 -128.5q1 -52 15.5 -98.5t40.5 -86.5l272 -466l268 475h-1q24 39 37.5 85t12.5 95v0zM517 387q-48 -1 -90.5 17.5t-74.5 49.5t-50.5 73.5t-19.5 91.5q0 48 18 90.5
t49.5 74.5t74 50.5t90.5 18.5q48 1 91 -17t74.5 -49.5t50.5 -74t19 -90.5q0 -49 -18 -91.5t-49.5 -74.5t-73.5 -50.5t-91 -18.5v0z" />
    <glyph glyph-name="uniE649" unicode="&#xe649;" 
d="M974 789q-27 27 -68.5 27t-73.5 -27l-490 -490l-164 163q-26 27 -67 27t-68 -27q-26 -26 -26 -68t26 -74l235 -234v0v0q26 -27 68 -27t74 27l554 554q32 32 32 74.5t-32 74.5v0z" />
    <glyph glyph-name="uniE64A" unicode="&#xe64a;" 
d="M541 258q0 -21 15 -36t36 -15t36 15t15 36t-15 36t-36 15t-36 -15t-15 -36zM105 258q0 -21 15 -36t36 -15t36 15t15 36t-15 36t-36 15t-36 -15t-15 -36zM742 364l249 25l-249 22v-47zM742 473l175 24l-176 22zM741 581l116 24l-116 23v-47zM665 670q16 0 27.5 -11.5
t11.5 -27.5l1 -288q0 -3 -0.5 -6.5t-1.5 -6.5h7q11 0 18.5 -7.5t7.5 -18.5q0 -10 -7.5 -18t-18.5 -8h-41q-4 31 -27.5 51.5t-54.5 20.5t-54 -21t-27 -51l-273 -2q-4 31 -27.5 51.5t-54.5 20.5t-54 -21t-27 -51h-26q-11 0 -18.5 7.5t-7.5 17.5q0 9 6 16.5t14 8.5
q-1 14 -2.5 46.5t3.5 49.5q4 21 49 83t159 47q4 0 7 -1t5 -3v81q0 16 11.5 27.5t27.5 11.5l367 2v0zM89 439q-3 -11 -2.5 -16l0.5 -5l140 2v82l-2 5.5t-11 5.5q-63 8 -92.5 -27t-32.5 -47v0z" />
    <glyph glyph-name="uniE64B" unicode="&#xe64b;" 
d="M897 358q-25 9 -56.5 16t-49.5 22q-15 12 -23 40.5t-16 52.5q-20 55 -38 96t-41 91q-12 26 -27 49.5t-17 43.5q-2 28 5 65.5t10 69.5q-1 2 -1 3v2v1v1v0l-1 1q-1 2 -2.5 4.5t-2.5 4.5q-5 4 -9.5 7.5t-8.5 7.5q-4 0 -7 0.5t-7 1.5q-48 -1 -85 -22.5t-53 -73.5
q-24 -74 3.5 -142.5t2.5 -142.5q-91 28 -168 28t-120 -65q-3 -7 -5 -14.5t-5 -15.5q-5 -26 2 -50t9 -42q-33 -26 -30.5 -70t36.5 -60q-20 -46 -5 -74.5t53 -43.5q-36 -61 24 -98t114 -30q29 -17 60 -33t60 -17q23 -1 54 9.5t53 18.5q21 8 50.5 27t47.5 18q23 -1 43.5 -12
t42.5 -17q4 2 9.5 3t12.5 1q21 26 39 56.5t34 65.5q4 14 8.5 28t9.5 28q7 39 9.5 75t-1.5 69q-5 4 -8 8t-5 8v0zM194 332q-1 12 5 19t13 15q25 -16 53.5 -31t63.5 -20q30 -5 63.5 5t59.5 8q15 -13 29.5 -30t12.5 -34q-16 1 -34.5 -2t-39.5 -5q-15 -2 -36 -6t-38 -2
q-44 6 -97.5 30.5t-54.5 52.5v0zM225 250q34 -6 59.5 -20t52.5 -18q24 -4 63.5 5.5t66.5 7.5q11 -11 19.5 -24t14.5 -27q-16 -4 -36 -6.5t-42 -4.5q-19 -2 -40.5 -6.5t-37.5 -1.5q-46 6 -91.5 30t-28.5 65v0zM353 54q-37 4 -65 26t-14 57q58 -27 98 -19t83 11
q12 -13 17.5 -28t12.5 -29q-22 0 -64 -10.5t-68 -7.5v0zM792 57q-29 4 -49 17t-46 13q-8 0 -22.5 -9.5t-25.5 -15.5q-14 -7 -26.5 -14t-22.5 -11q-39 -16 -76 -28t-90 17q23 5 48 7.5t49 4.5q2 28 -11.5 52t-16.5 45q8 0 15 1t15 2q1 2 2 4.5t2 4.5l1.5 1.5t0.5 1.5
q1 3 2 5.5t3 5.5q-5 19 -13.5 36.5t-18.5 34.5q7 -1 13.5 0t12.5 2q1 2 1.5 3.5t1.5 3.5q-3 26 -13 49t-29 42q4 5 12.5 2.5t12.5 11.5q3 14 -29.5 67t-89.5 65q-27 6 -60.5 3.5t-69.5 14.5q1 -8 7.5 -22t13.5 -25q30 -11 61.5 -6t61.5 -5q25 -8 38.5 -25t22.5 -42
q-17 -6 -36 -6.5t-38 -3.5q-18 -1 -37.5 -6t-37.5 -3q-70 9 -103 59.5t-5 101.5q2 4 7.5 10t10.5 10q45 33 114.5 14t144.5 -39q17 46 20 89.5t-3 88.5q-7 47 -18 105.5t48 92.5q11 6 25 8.5t31 4.5q5 -32 -5 -68.5t-6 -71.5q2 -19 17.5 -46t27.5 -52q25 -52 43 -95t39 -102
q9 -24 20 -53.5t26 -42.5q19 -16 52.5 -25.5t56.5 -19.5q3 -30 -2.5 -66t-16.5 -72t-27 -69t-36 -57v0z" />
    <glyph glyph-name="uniE64C" unicode="&#xe64c;" 
d="M928 551h-118v238q36 0 36 36.5t-36 36.5h-606q-33 0 -36 -32.5t29 -39.5v-239h-107q-33 0 -55 -26t-16 -60l78 -414q5 -25 25 -42t46 -17h678q26 0 46 16.5t25 42.5l82 414q7 33 -15 59.5t-56 26.5v0zM197 65h-29l-37 196h66v-196v0zM197 297h-73l-34 182h107v-182v0z
M388 65h-155v196h155v-196zM388 297h-155v182h155v-182zM582 65h-157v196h157v-196zM582 297h-157v182h157v-182zM774 65h-155v196h155v-196zM774 297h-155v182h155v-182zM774 551h-541v238h541v-238v0zM846 65h-36v196h75l-39 -196v0zM892 297h-82v182h118v0v0l-36 -182v0z
" />
    <glyph glyph-name="uniE64D" unicode="&#xe64d;" 
d="M356 344l-194 208l-144 -134l331 -355l670 625l-137 146z" />
    <glyph glyph-name="uniE64E" unicode="&#xe64e;" 
d="M717 -17q32 27 64 53.5l64 53l64 53t63 53.5q5 4 7 8.5t2 8.5q0 5 -2 9.5t-7 7.5q-31 27 -63 53.5l-64 53t-64 53.5t-64 53q-12 10 -27 5t-15 -22v-44.5v-44.5h-117.5h-143h-143h-118.5q-10 0 -17 -7.5t-7 -17.5v-98.5v-99.5q0 -10 7 -17t17 -7h118.5h143h143h117.5v-45
v-45q0 -17 15 -22t27 5v0zM294 906q-31 -27 -63 -53.5l-64 -53l-64 -53t-64 -53.5q-5 -4 -7 -8.5t-1 -8.5q-1 -5 1 -9t7 -8q32 -27 64 -53.5l64 -53t64 -53.5t63 -53q12 -10 27 -5t15 22v44.5v44.5h118h143h143.5h117.5q10 0 17 7.5t7 17.5v98.5v99.5q0 10 -7 17t-17 7
h-117.5h-143.5h-143h-118v45v45q0 17 -15 22t-27 -5v0z" />
    <glyph glyph-name="uniE64F" unicode="&#xe64f;" 
d="M484 4q-185 135 -280.5 250t-135.5 198t-43 130l-3 47q0 57 22 107t59 87.5t87.5 59t107.5 21.5q64 0 119.5 -53t93.5 -99q38 46 93.5 99t119.5 53q57 0 107 -21.5t87.5 -59t59 -87.5t21.5 -107l-6.5 -48.5t-49 -133.5t-136 -199t-266.5 -244q-12 -10 -28 -10t-29 10v0z
" />
    <glyph glyph-name="uniE651" unicode="&#xe651;" 
d="M0 448q0 -106 40.5 -199t110 -162.5t162.5 -110t199 -40.5t199 40.5t162.5 110t110 162.5t40.5 199t-40.5 199t-110 162.5t-162.5 110t-199 40.5t-199 -40.5t-162.5 -110t-110 -162.5t-40.5 -199v0zM123 448q0 80 31 151t83.5 123.5t123.5 83.5t151 31t151 -31
t123.5 -83.5t83.5 -123.5t31 -151t-31 -151t-83.5 -123.5t-123.5 -83.5t-151 -31t-151 31t-123.5 83.5t-83.5 123.5t-31 151v0v0zM682 618q-13 19 -28 31t-33 18q-12 3 -37.5 5t-64.5 2h-138v-498h85v188h56q29 0 51.5 1.5t37.5 5.5q12 3 23 9t22 15q11 8 20 20.5t16 28.5
q7 15 10.5 34.5t3.5 42.5q0 30 -6 54t-18 43v0zM609 480q-5 -8 -12 -14.5t-15 -10.5q-9 -3 -26 -5t-43 -2h-47v142h42q23 0 38.5 -0.5t23.5 -2.5q11 -2 19.5 -7.5t15.5 -14.5t10.5 -20.5t3.5 -25.5q0 -11 -2.5 -20.5t-7.5 -18.5v0z" />
    <glyph glyph-name="uniE652" unicode="&#xe652;" horiz-adv-x="1166" 
d="M598 746q-22 0 -35 -16t-13 -38v-295q0 -29 26.5 -48l26.5 -19l183 -94q19 -11 43 -5t35 25t-6 40.5t-36 32.5l-175 83v280q0 22 -13.5 38t-35.5 16v0zM654 960q-106 0 -199.5 -40t-163 -109.5t-109.5 -163t-40 -199.5t40 -199.5t109.5 -163t163 -109.5t199.5 -40t199 40
t162.5 109.5t110 163t40.5 199.5t-40.5 199.5t-110 163t-162.5 109.5t-199 40v0zM654 55q-82 0 -153.5 31t-125 84t-84 125t-30.5 153t30.5 153t84 125t125 84t153.5 31q81 0 153 -31t125 -84t84 -125t31 -153t-31 -153t-84 -125t-125 -84t-153 -31v0z" />
    <glyph glyph-name="uniE653" unicode="&#xe653;" horiz-adv-x="1008" 
d="M283 177q0 -30 -20 -51.5t-49 -21.5t-49 21.5t-20 51.5t20 51t49 21t49 -21t20 -51zM876 177q0 -30 -20.5 -51.5t-48.5 -21.5q-29 0 -49.5 21.5t-20.5 51.5t20.5 51t49.5 21q28 0 48.5 -21t20.5 -51zM108 762q-22 0 -37.5 -16t-15.5 -39l-1 -409q0 -5 1 -10t2 -9h-10
q-15 0 -25 -10.5t-10 -26.5q0 -15 10 -25.5t24 -10.5l57 -1q6 44 37.5 73t73.5 29q43 0 74 -29.5t36 -73.5l372 -1q6 43 37 72.5t74 28.5q43 0 74 -29.5t36 -72.5h35q15 0 25 10.5t10 25.5q0 13 -7.5 23t-19.5 13q2 19 4 65t-4 71q-4 15 -19.5 49.5t-48 68t-85.5 55.5
t-131 11q-6 1 -10 -0.5t-6 -3.5v114q0 23 -15.5 39.5t-37.5 16.5l-499 2v0zM891 435q4 -16 3.5 -23.5l-0.5 -7.5l-190 3v116l2.5 8t14.5 8q86 12 126 -38t44 -66v0z" />
    <glyph glyph-name="uniE654" unicode="&#xe654;" 
d="M64 485v194l896 -2v-193zM33 750q-9 -9 -14 -20t-5 -24v-515q0 -12 4.5 -23.5t13.5 -20.5q11 -10 25 -16t30 -6l850 -1q30 0 51.5 19.5t21.5 46.5v515q0 12 -4.5 23.5t-13.5 20.5q-11 10 -25.5 16t-29.5 6l-850 1q-15 0 -29.5 -6t-24.5 -16v0z" />
    <glyph glyph-name="uniE655" unicode="&#xe655;" 
d="M175 649h-53q-39 0 -67.5 -29.5t-28.5 -86.5q0 -35 15.5 -59.5t43.5 -37.5l-70 -128q-2 -3 -0.5 -5.5t3.5 -2.5h33q2 0 3.5 1t2.5 3l64 125h23v-125q0 -1 1 -2.5t3 -1.5h28q2 0 3 1t1 3v340q0 3 -1.5 4t-3.5 1v0zM144 459h-19q-23 0 -41.5 18t-18.5 60q0 44 17 63t39 19
h23v-160v0zM349 533h-29q-1 0 -2 -1t-1 -2v-89h-54v89q0 2 -0.5 2.5t-2.5 0.5h-29q-1 0 -2 -1t-1 -2v-226q0 -2 0.5 -3t2.5 -1h29q1 0 2 1t1 3v108h54v-108q0 -2 1 -3t2 -1h29q2 0 2.5 1.5t0.5 2.5v226q0 1 -1 2t-2 1v0zM1005 315l-4 16q0 1 -0.5 1.5t-1.5 0.5
q-2 0 -11 -2.5t-22 -2.5q-27 0 -40 23.5t-13 64.5q0 35 10.5 64.5t28.5 29.5q5 0 11 -2.5t16 -10.5l1.5 -1.5t1.5 -0.5q2 0 3 0.5t2 2.5l12 20q1 1 1.5 2.5t0.5 2.5t-1.5 2t-3.5 2q-14 8 -24.5 10t-18.5 2q-33 0 -55.5 -36.5t-22.5 -97.5q0 -52 22 -81t57 -29q15 0 29 5.5
t20 9.5q1 1 1.5 2.5t0.5 2.5v0zM803 428l56 102q1 1 0.5 2t-1.5 1h-28q-6 0 -8.5 -2t-4.5 -7l-42 -86q-2 -4 -3.5 -6.5t-3.5 -3.5v102q0 1 -0.5 2t-2.5 1h-30q-1 0 -1.5 -1t-0.5 -2v-226q0 -1 0.5 -2t1.5 -1h30q2 0 2.5 0.5t0.5 2.5v116q1 0 2 -1t1 -3l53 -109q2 -4 5.5 -5
t7.5 -1h30q1 0 1.5 1t-0.5 2l-65 124v0zM538 330h-6q-5 0 -6.5 2t-1.5 6v192q0 2 -1 2.5t-2 0.5h-93q-2 0 -3 -1t-1 -2v-17q0 -42 -5 -92t-27 -91h-11q-2 0 -2.5 -1t-0.5 -3v-29.5v-38.5q0 -2 1 -2.5t2 -0.5h22q4 0 5.5 2.5t1.5 4.5v39h99v-43q0 -1 1 -2t2 -1h24q2 0 4 1.5
t2 5.5v64q0 2 -1 3t-3 1v0zM488 330h-67q17 30 25 65t11 76q1 10 1 18.5v14.5h30v-174v0zM632 539q-37 0 -54.5 -40.5t-17.5 -91.5q0 -53 21.5 -82.5t56.5 -29.5q17 0 31 5t22 10q1 1 1.5 2t0.5 2l-4 16q0 2 -1 2.5t-3 0.5q-1 0 -10.5 -2.5t-23.5 -2.5q-27 0 -39.5 20.5
t-12.5 51.5v7.5v3.5l10 -1t18 -1h68v19q0 54 -17.5 82.5t-45.5 28.5v0zM627 438q-8 0 -17.5 -1l-9.5 -1v4.5t1 10.5q3 29 10.5 44t19.5 15q11 0 18 -14.5t8 -41.5q1 -6 1 -11v-5h-15.5h-15.5v0z" />
    <glyph glyph-name="uniE656" unicode="&#xe656;" 
d="M851 616q-1 71 -27.5 133t-72 108t-106 72.5t-129.5 26.5q-69 -1 -129.5 -28t-105 -74t-70 -109t-25.5 -133q0 -53 15.5 -101t42.5 -89l280 -481l276 490h-1q25 40 38.5 87t13.5 98v0zM520 385q-50 0 -94 18.5t-76.5 51t-52 76t-19.5 93.5t18.5 94t51 76.5t76 52
t93.5 19.5q49 0 93 -18.5t77 -51t52 -76t20 -93.5q0 -50 -18.5 -93.5t-51 -76.5t-76 -52t-93.5 -20v0zM518 677q-21 0 -36 -15t-15 -36t15 -36t36 -15t36.5 15t15.5 36t-15.5 36t-36.5 15zM644 720h-47q0 13 -9 22.5t-22 9.5h-95q-13 0 -22 -9.5t-9 -22.5h-48q-13 0 -22 -9
t-9 -22v-142q0 -13 9 -22t22 -9h252q13 0 22.5 9t9.5 22v142q0 13 -9.5 22t-22.5 9v0zM518 551q-31 0 -52.5 22t-21.5 53t21.5 53t52.5 22t53 -22t22 -53t-22 -53t-53 -22zM411 682h-16q-3 0 -5.5 2t-2.5 6q0 3 2.5 5t5.5 2h16q3 0 5.5 -2t2.5 -5q0 -4 -2.5 -6t-5.5 -2z" />
    <glyph glyph-name="uniE657" unicode="&#xe657;" 
d="M840 611q0 69 -26 129t-70 104.5t-102.5 70t-125.5 25.5q-67 -1 -125.5 -27t-102 -71.5t-68 -106t-24.5 -128.5q1 -51 15.5 -98t40.5 -86l271 -466l268 475h-1q24 39 37 84.5t13 94.5v0zM520 387q-49 0 -91.5 18t-74 49.5t-50 73.5t-19.5 90q0 49 18 91.5t49.5 74
t73.5 50.5t90 19q49 0 91.5 -18t74 -49.5t50.5 -73.5t19 -90q0 -49 -18 -91.5t-49.5 -74t-73.5 -50t-90 -19.5v0zM581 768h-126q-9 0 -15 -6t-6 -14v-255q0 -8 6 -14t15 -6h126q9 0 15 6t6 14v255q0 8 -6 14t-15 6zM525 486h-14q-3 0 -5 2t-2 5t2 5t5 2h14q3 0 5 -2t2 -5
t-2 -5t-5 -2zM588 513h-140v215h140v-215v0z" />
    <glyph glyph-name="uniE658" unicode="&#xe658;" horiz-adv-x="1089" 
d="M193 589q-30 31 -73 29.5t-72 -31.5q-31 -31 -30 -74t32 -71q30 -31 73.5 -30t73.5 32q28 30 27.5 72.5t-31.5 72.5v0zM1055 245l-73 276q-7 22 -26.5 33.5t-42.5 6.5l-164 -42l79 203l-413 162l-241 -624l167 -66q4 -16 12.5 -30.5t21.5 -25.5q17 -18 39 -26t46 -8h4h5
l2 -13q6 -22 26 -33.5t42 -7.5l473 127q24 6 35.5 25.5t7.5 42.5v0zM531 200q-3 -6 -7 -13.5t-10 -12.5q-10 -9 -21 -14t-24 -7v0q-16 -2 -31.5 3t-28.5 16q-13 13 -18 29t-3 33v0q1 11 6 22t13 21q3 3 6 5t7 6v0q21 14 46.5 12t45.5 -21q16 -16 20.5 -37t-1.5 -42v0v0z
M492 345q-6 28 0.5 56.5t27.5 50.5l3.5 3.5t3.5 1.5l-86 -24q-22 -6 -33.5 -26t-7.5 -42l9 -28q-10 -5 -18 -11.5t-16 -14.5q-15 -11 -23 -26.5t-11 -31.5l-94 37l198 519l308 -119l-73 -191l-57 -15q14 -3 28 -10t25 -20q34 -32 34 -78t-32 -80q-21 -21 -48 -29t-54 -3
q-5 15 -13 27.5t-19 23.5q-10 12 -23.5 19.5t-28.5 10.5v0zM546 138q1 0 1.5 1l0.5 1q16 16 24.5 36t9.5 41l415 116l17 -67l-468 -128v0z" />
    <glyph glyph-name="uniE659" unicode="&#xe659;" 
d="M1024 448q0 -106 -40.5 -199t-110 -162.5t-162.5 -110t-199 -40.5t-199 40.5t-162.5 110t-110 162.5t-40.5 199t40.5 199t110 162.5t162.5 110t199 40.5q107 0 200 -40.5t162.5 -110t109.5 -162.5t40 -199zM650 483l-157 163q-17 17 -37 17t-37 -17q-17 -16 -17 -36
t17 -37l125 -125l-125 -125q-17 -17 -17 -37t17 -36q17 -17 37 -17t37 17l157 156q14 20 14 41.5t-14 35.5v0v0z" />
    <glyph glyph-name="uniE65A" unicode="&#xe65a;" 
d="M1024 448q0 -104 -40 -197t-109 -163t-162.5 -111t-200.5 -41t-200 40t-162.5 109.5t-109.5 162.5t-40 200q0 104 40 197t109 163t162.5 111t200.5 41t200 -41t162.5 -110.5t109.5 -163t40 -197.5zM592 448l118 118q15 15 15 39.5t-15 40.5q-14 15 -38.5 15t-41.5 -15
l-118 -118l-118 118q-15 15 -39.5 15t-40.5 -15q-15 -14 -15 -38.5t15 -41.5l118 -118l-118 -118q-15 -15 -15 -39.5t15 -40.5q14 -15 38.5 -15t41.5 15l118 118l118 -118q15 -15 39.5 -15t40.5 15q15 14 15 38.5t-15 41.5z" />
    <glyph glyph-name="uniE65C" unicode="&#xe65c;" 
d="M512 572q-51 0 -87.5 -36.5t-36.5 -87.5t36.5 -87.5t87.5 -36.5t87.5 36.5t36.5 87.5t-36.5 87.5t-87.5 36.5zM884 572q-52 0 -88 -36.5t-36 -87.5t36 -87.5t88 -36.5q51 0 87.5 36.5t36.5 87.5t-36.5 87.5t-87.5 36.5zM140 572q-51 0 -87.5 -36.5t-36.5 -87.5
t36.5 -87.5t87.5 -36.5q52 0 88 36.5t36 87.5t-36 87.5t-88 36.5v0z" />
    <glyph glyph-name="uniE900" unicode="&#xe900;" horiz-adv-x="768" 
d="M134 515h178v356h133v-356h178l-245 -267l-244 267v0zM45 114h667v-89h-667v89v0z" />
    <glyph glyph-name="uniE901" unicode="&#xe901;" 
d="M764 889h196v-98h-98v-684h98v-98h-196v880zM79 889h196v-98h-98v-293h98v-98h-98v-293h98v-98h-196v880v0zM373 889h294v-880h-98v391h-98v-391h-98v880v0zM471 498h98v293h-98v-293v0z" />
    <glyph glyph-name="uniE902" unicode="&#xe902;" 
d="M742 525v-365l-519 -173l417 286v636l-48 -38.5t-112.5 -90t-130.5 -103t-101 -77.5q-85 -63 -101 -98t-16 -76v-419q0 -29 20.5 -50t50.5 -21h668v589h-128v0zM457 539q18 22 41.5 28.5t38.5 -5.5q14 -13 11.5 -37t-20.5 -46q-19 -22 -42 -28.5t-38 5.5t-12.5 36.5
t21.5 46.5v0z" />
    <glyph glyph-name="uniE903" unicode="&#xe903;" 
d="M512 842q96 0 126.5 -0.5t68.5 -3.5q36 -2 57 -6.5t33 -9.5q17 -7 29.5 -15t24.5 -20t20 -24.5t15 -29.5q5 -12 9.5 -33t6.5 -57q3 -38 3.5 -68.5t0.5 -126.5t-0.5 -126.5t-3.5 -68.5q-2 -36 -6.5 -57t-9.5 -33q-7 -17 -15 -29.5t-20 -24.5t-24.5 -20t-29.5 -15
q-12 -5 -33 -9.5t-57 -6.5q-38 -3 -68.5 -3.5t-126.5 -0.5t-126.5 0.5t-68.5 3.5q-36 2 -57 6.5t-33 9.5q-17 7 -29.5 15t-24.5 20t-20 24.5t-15 29.5q-5 12 -9.5 33t-6.5 57q-3 38 -3.5 68.5t-0.5 126.5t0.5 126.5t3.5 68.5q2 36 6.5 57t9.5 33q7 14 15 27t20 27
q12 12 24.5 20t29.5 15q12 5 33 9.5t57 6.5q38 3 68.5 3.5t126.5 0.5zM512 928q-98 0 -129 -0.5t-69 -2.5q-39 -3 -66.5 -8t-49.5 -15q-24 -9 -44 -22t-42 -32q-19 -22 -32 -42t-22 -44q-10 -24 -15 -50.5t-8 -65.5q-2 -38 -2.5 -69t-0.5 -129t0.5 -129t2.5 -69
q3 -39 8 -66.5t15 -49.5q9 -24 22 -44t32 -42q19 -19 40.5 -32t45.5 -22q24 -10 50.5 -15t65.5 -8q38 -2 69 -2.5t129 -0.5t129 0.5t69 2.5q39 3 66.5 8t49.5 15q24 9 44 22t42 32q19 19 32 40.5t22 45.5q10 24 15 50.5t8 65.5q2 38 2.5 69t0.5 129t-0.5 129t-2.5 69
q-3 39 -8 66.5t-15 49.5q-9 24 -22 44t-32 42q-19 19 -40.5 32t-45.5 22q-24 10 -50.5 15t-65.5 8q-38 2 -69 2.5t-129 0.5v0zM512 694q-52 0 -97 -19t-78 -52t-52 -78t-19 -97t19 -96.5t52 -78t78 -52.5t97 -19t96.5 19t78 52t52.5 78t19 97t-19 96.5t-52 78t-78 52.5
t-97 19zM512 288q-67 0 -113.5 46.5t-46.5 113.5t46.5 113.5t113.5 46.5t113.5 -46.5t46.5 -113.5t-46.5 -113.5t-113.5 -46.5zM826 704q0 -24 -17 -41t-41 -17t-41 17t-17 41t17 41t41 17t41 -17t17 -41z" />
    <glyph glyph-name="uniE904" unicode="&#xe904;" 
d="M208 800l-48 -128v-512h176v-96h96l96 96h144l192 192v448h-656zM800 384l-96 -96h-192l-96 -96v96h-128v448h512v-352zM608 608h64v-192h-64v192zM448 608h64v-192h-64v192z" />
    <glyph glyph-name="uniE905" unicode="&#xe905;" 
d="M583 433l-270 -61q2 -4 6 -9t10 -11t15 -9t20 -3h366q6 0 11.5 -2t9.5 -7q4 -4 6.5 -9.5t2.5 -11.5t-2.5 -11.5t-6.5 -9.5q-4 -5 -9.5 -7t-11.5 -2h-366q-30 0 -51 9.5t-33 27.5t-18.5 28t-6.5 11l-160 403h-84q-6 0 -11.5 2t-9.5 7q-4 4 -6.5 9.5t-2.5 11.5t2.5 11.5
t6.5 9.5q4 5 9.5 7t11.5 2h104h2t3 -1h2h1q2 -1 3 -1h1l1 -1l1 -1l0.5 -0.5l0.5 -0.5q1 -1 2 -1t1 -1q1 0 2 -0.5t1 -1.5l1.5 -1.5l0.5 -0.5q1 -1 1.5 -2t1.5 -2q0 -1 0.5 -2t1.5 -2l40 -101h256q0 -33 6.5 -63.5t18.5 -59.5t29.5 -54.5t38.5 -46.5q12 -12 24.5 -22.5
t26.5 -19.5v0zM760 175q0 -15 -5.5 -28.5t-16.5 -24.5q-11 -10 -24.5 -15.5t-28.5 -5.5t-28.5 5.5t-24.5 15.5q-11 11 -16.5 24.5t-5.5 28.5q0 16 5.5 29t16.5 24t24.5 16.5t28.5 5.5t28.5 -5.5t24.5 -16.5t16.5 -24t5.5 -29zM424 175q0 -15 -5 -28.5t-16 -24.5
q-11 -10 -24 -15.5t-29 -5.5t-29 5.5t-24 15.5q-11 11 -16.5 24.5t-5.5 28.5q0 16 5.5 29t16.5 24t24 16.5t29 5.5t29 -5.5t24 -16.5t16 -24t5 -29v0zM758 948q-26 0 -50 -5t-47 -15q-23 -9 -42.5 -22.5t-36.5 -30.5q-17 -16 -30 -36t-23 -42q-9 -23 -14 -47t-5 -50t5 -50
t14 -46q10 -23 23 -42.5t30 -36.5t36.5 -30.5t42.5 -22.5q23 -10 47 -15t50 -5q25 0 49 5t47 15q22 9 42 22.5t36 30.5q17 17 30.5 36.5t23.5 42.5q9 22 14 46t5 50t-5 50t-14 47q-10 22 -23.5 42t-30.5 36q-16 17 -36 30.5t-42 22.5q-23 10 -47 15t-49 5v0zM758 510
q-20 0 -38.5 3.5t-36.5 11.5q-17 7 -32 17.5t-28 23.5q-13 12 -23 27.5t-18 32.5q-7 17 -11 36t-4 38q0 20 4 38.5t11 35.5q8 18 18 33t23 28q13 12 28 22.5t32 17.5q18 8 36.5 11.5t38.5 3.5q19 0 37.5 -3.5t36.5 -11.5q17 -7 32 -17.5t28 -22.5q13 -13 23 -28t18 -33
q7 -17 11 -35.5t4 -38.5q0 -19 -4 -38t-11 -36q-8 -17 -18 -32.5t-23 -27.5q-13 -13 -28 -23.5t-32 -17.5q-18 -8 -36.5 -11.5t-37.5 -3.5v0zM731 844q-6 0 -10 -2t-7 -5q-4 -4 -5.5 -9t-1.5 -10v-143q0 -7 3.5 -12.5t9.5 -10.5q7 -4 10 -6.5l3 -2.5l88 -45q5 -3 10 -3.5
t11 0.5q6 2 10.5 5t6.5 7q3 5 2 10t-5 10t-8.5 9t-8.5 7l-85 40v135q0 5 -1.5 10t-4.5 8q-4 4 -8 6t-9 2v0z" />
  </font>
</defs>
</svg>
